<!DOCTYPE svg PUBLIC "-//W3C//DTD SVG 1.1//EN" "http://www.w3.org/Graphics/SVG/1.1/DTD/svg11.dtd">
<!-- Uploaded to: SVG Repo, www.svgrepo.com, Transformed by: SVG Repo Mixer Tools -->
<svg fill="#000000" height="64px" width="64px" version="1.1" xmlns="http://www.w3.org/2000/svg" viewBox="0 0 452.342 452.342" xmlns:xlink="http://www.w3.org/1999/xlink" enable-background="new 0 0 452.342 452.342" stroke="#000000" stroke-width="5.428103999999999">
<g id="SVGRepo_bgCarrier" stroke-width="0"/>
<g id="SVGRepo_tracerCarrier" stroke-linecap="round" stroke-linejoin="round"/>
<g id="SVGRepo_iconCarrier"> <path d="m439.842,332.589h-24.808v-48.125c0-5.222-3.246-9.894-8.141-11.715l-112.011-41.676 11.985-31.155 38.003-21.113c3.969-2.205 6.43-6.387 6.43-10.927v-48.125h4.6c6.903,0 12.5-5.596 12.5-12.5s-5.597-12.5-12.5-12.5h-144.566c-6.903,0-12.5,5.596-12.5,12.5s5.597,12.5 12.5,12.5h4.6v58.942h-30.819v-10.817c0-3.875-1.798-7.532-4.867-9.899-3.069-2.366-7.063-3.176-10.811-2.19l-160.113,42.09c-6.263,1.646-10.23,7.802-9.146,14.185l13.99,82.269c0.036,0.211 0.089,0.415 0.135,0.622-5.063,6.571-8.084,14.791-8.084,23.708 0,21.464 17.463,38.926 38.927,38.926s38.926-17.462 38.926-38.926c0-4.906-0.921-9.599-2.585-13.926h41.431c-1.664,4.327-2.586,9.02-2.586,13.926 0,21.464 17.463,38.926 38.927,38.926s38.926-17.462 38.926-38.926c0-4.906-0.921-9.599-2.585-13.926h31.704c2.037,29.483 26.659,52.853 56.651,52.853 31.321,0 56.803-25.482 56.803-56.803 0-10.558-2.905-20.447-7.944-28.926l57.222,21.291v39.438h-24.808c-6.903,0-12.5,5.597-12.5,12.5s5.597,12.5 12.5,12.5h74.615c6.903,0 12.5-5.597 12.5-12.5s-5.597-12.501-12.501-12.501zm-198.909-212.836h85.368v40.77l-32.709,18.172h-52.659v-58.942zm-203.888,159.984l-4.36-25.643h127.429v25.643h-123.069zm123.069-95.648v45.005h-131.68l-1.691-9.945 133.371-35.06zm-101.042,134.574c0,7.679-6.247,13.926-13.926,13.926-7.68,0-13.927-6.247-13.927-13.926s6.247-13.926 13.927-13.926c7.679,0 13.926,6.247 13.926,13.926zm100.186,13.926c-7.68,0-13.927-6.247-13.927-13.926s6.247-13.926 13.927-13.926c7.679,0 13.926,6.247 13.926,13.926s-6.247,13.926-13.926,13.926zm71.952-52.852h-46.096v-76.041h93.516l-17.315,45.008c-13.669,5.964-24.545,17.154-30.105,31.033zm52.744,52.852c-17.537,0-31.804-14.267-31.804-31.803s14.267-31.803 31.804-31.803c17.536,0 31.803,14.267 31.803,31.803s-14.267,31.803-31.803,31.803z"/> </g>
</svg>