<svg width="64" height="64" xmlns="http://www.w3.org/2000/svg" xml:space="preserve" version="1.1" fill="#000000">

 <g>
  <title>Layer 1</title>
  <g stroke-width="0" id="SVGRepo_bgCarrier"/>
  <g stroke-linejoin="round" stroke-linecap="round" id="SVGRepo_tracerCarrier"/>
  <g stroke="null" id="SVGRepo_iconCarrier">
   <g stroke="null" id="svg_1">
    <path stroke="null" id="svg_2" d="m20.25862,37.14785c-0.20653,-0.70658 -0.75641,-1.02858 -1.22763,-0.71887c-0.47147,0.30952 -0.6862,1.13324 -0.47967,1.83981c0.22368,0.76524 0.33713,1.58151 0.33713,2.42571c0,3.33733 -1.8118,6.05263 -4.03865,6.05263s-4.03865,-2.71549 -4.03865,-6.05282s1.8118,-6.05263 4.03865,-6.05263c0.56206,0 1.1056,0.16929 1.61546,0.50321c0.47159,0.30878 1.0211,-0.0136 1.22725,-0.72054c0.20616,-0.70676 -0.0092,-1.53029 -0.48079,-1.83926c-0.74672,-0.48887 -1.54127,-0.73693 -2.36193,-0.73693c-3.25466,0 -5.90264,3.96848 -5.90264,8.84616s2.64799,8.84616 5.90264,8.84616s5.90264,-3.96848 5.90264,-8.84616c0,-1.2325 -0.16614,-2.42571 -0.49383,-3.54647z"/>
    <path stroke="null" id="svg_3" d="m46.10599,37.14785c-0.20653,-0.70658 -0.75641,-1.02858 -1.22763,-0.71887c-0.47147,0.30952 -0.6862,1.13324 -0.47967,1.83981c0.22368,0.76524 0.33713,1.58151 0.33713,2.42571c0,3.33733 -1.8118,6.05263 -4.03865,6.05263s-4.03865,-2.71549 -4.03865,-6.05282s1.8118,-6.05263 4.03865,-6.05263c0.56206,0 1.1056,0.16929 1.61546,0.50321c0.47171,0.30878 1.0211,-0.0136 1.22725,-0.72054c0.20616,-0.70676 -0.0092,-1.53029 -0.48079,-1.83926c-0.74672,-0.48887 -1.54127,-0.73693 -2.36193,-0.73693c-3.25466,0 -5.90264,3.96848 -5.90264,8.84616s2.64799,8.84616 5.90264,8.84616s5.90264,-3.96848 5.90264,-8.84616c0,-1.2325 -0.16614,-2.42571 -0.49383,-3.54647z"/>
    <path stroke="null" id="svg_4" d="m62.56803,51.21659l-0.59809,0c-4.48688,-7.2369 -4.43581,-20.79573 -4.43469,-20.93373c0.00447,-0.53207 -0.19323,-1.02187 -0.50986,-1.26304c-0.31663,-0.24117 -0.69713,-0.19145 -0.98121,0.12794l-1.67971,1.88786l-3.90743,-6.98604c-0.9351,-1.67183 -2.30626,-2.63057 -3.76179,-2.63057l-1.08957,0l0,-1.583c0,-0.77138 -0.41729,-1.39676 -0.932,-1.39676s-0.932,0.62538 -0.932,1.39676l0,1.583l-6.02691,0c-1.61024,0 -2.92026,1.96329 -2.92026,4.37652l0,2.97976c0,0.01751 0.00137,0.03464 0.00174,0.05196c-0.81009,0.90696 -1.52251,1.99774 -2.11427,3.22745l0,-19.7612l2.05039,0c0.51471,0 0.932,-0.62538 0.932,-1.39676s-0.41729,-1.39676 -0.932,-1.39676l-14.91194,0c-2.15838,0 -3.91439,2.63168 -3.91439,5.8664l0,4.56275l-11.99169,0c-1.61024,0 -2.92026,1.96329 -2.92026,4.37652l0,7.90474c-0.59213,0.49296 -0.99413,1.43922 -0.99413,2.52441l0,7.44939c0,2.41323 1.31001,4.37652 2.92026,4.37652l2.86086,0c1.51891,5.25369 5.01141,8.93927 9.0687,8.93927s7.54967,-3.68559 9.0687,-8.93927l7.70997,0c1.51891,5.25369 5.01141,8.93927 9.0687,8.93927s7.54967,-3.68559 9.0687,-8.93927l1.92886,0l0,0.09312c0,4.0562 2.202,7.35628 4.90851,7.35628l5.96478,0c0.51471,0 0.932,-0.62538 0.932,-1.39676s-0.41729,-1.39676 -0.932,-1.39676zm-31.75001,-31.28746l-9.07143,0l0,-3.07288c0,-0.0514 0.02784,-0.09312 0.06213,-0.09312l9.0093,0l0,3.16599zm-27.89776,23.83806c-0.58244,0 -1.05626,-0.71011 -1.05626,-1.583l0,-7.44939c0,-0.0514 0.02784,-0.09312 0.06213,-0.09312l3.91128,0c-0.5551,1.84931 -0.86676,3.89678 -0.86676,6.05263c0,1.05353 0.07506,2.08099 0.21535,3.07288l-2.26575,0zm11.92955,8.93927c-4.41953,0 -8.01517,-5.38871 -8.01517,-12.01215s3.59564,-12.01215 8.01517,-12.01215s8.01517,5.38871 8.01517,12.01215s-3.59564,12.01215 -8.01517,12.01215zm0,-26.81782c-3.23713,0 -6.11539,2.34563 -7.91837,5.96212c-0.01156,-0.00056 -0.02299,-0.00261 -0.03467,-0.00261l-4.03865,0l0,-7.54251c0,-0.87288 0.47383,-1.583 1.05626,-1.583l12.92368,0c0.51471,0 0.932,-0.62538 0.932,-1.39676l0,-5.95952c0,-1.69436 0.91982,-3.07288 2.05039,-3.07288l10.99756,0l0,1.67611l-9.0093,0c-1.0621,0 -1.92613,1.29489 -1.92613,2.88664l0,4.46964c0,0.77138 0.41729,1.39676 0.932,1.39676l10.00343,0l0,9.12551l-5.03278,0c-0.51471,0 -0.932,0.62538 -0.932,1.39676s0.41729,1.39676 0.932,1.39676l5.03278,0l0,9.12551l-6.3044,0c0.1403,-0.99189 0.21535,-2.01934 0.21535,-3.07288c0,-8.16379 -4.43183,-14.80567 -9.87916,-14.80567zm25.84737,26.81782c-4.41953,0 -8.01517,-5.38871 -8.01517,-12.01215s3.59564,-12.01215 8.01517,-12.01215s8.01517,5.38871 8.01517,12.01215s-3.59564,12.01215 -8.01517,12.01215zm9.66381,-8.93927c0.1403,-0.99189 0.21535,-2.01934 0.21535,-3.07288c0,-8.16379 -4.43183,-14.80567 -9.87916,-14.80567c-1.43851,0 -2.80469,0.46708 -4.03865,1.29899l0,-1.39211c0,-0.87288 0.47383,-1.583 1.05626,-1.583l8.98047,0c0.90279,0 1.75327,0.59465 2.33322,1.6316l3.90805,6.98716c-0.78847,1.33475 -1.24179,3.07623 -1.24179,4.88326l0,6.05263l-1.33375,0zm6.24226,7.44939c-1.67871,0 -3.04452,-2.04691 -3.04452,-4.56275l0,-8.93927c0,-1.42842 0.45531,-2.79315 1.21781,-3.6502l0.96219,-1.08147c0.19634,4.17892 0.95188,12.26357 3.82752,18.2337l-2.963,0z"/>
   </g>
  </g>
  <ellipse transform="rotate(-40.7068 8.75007 29.0553)" stroke="#000" stroke-width="2" ry="1.03616" rx="0.09159" id="svg_5" cy="29.05534" cx="8.75007" fill="#fff"/>
  <ellipse transform="rotate(-3.68753 14.7501 26.3887)" stroke="#000" stroke-width="2" ry="1.03616" rx="0.09159" id="svg_6" cy="26.38868" cx="14.75005" fill="#fff"/>
  <ellipse transform="rotate(36.445 20.5834 28.8887)" stroke="#000" stroke-width="2" ry="1.03616" rx="0.09159" id="svg_7" cy="28.88867" cx="20.58337" fill="#fff"/>
  <ellipse transform="rotate(67.902 23.9167 34.222)" stroke="#000" stroke-width="2" ry="1.03616" rx="0.09159" id="svg_8" cy="34.22199" cx="23.91669" fill="#fff"/>
  <ellipse transform="rotate(93.6946 24.75 41.222)" stroke="#000" stroke-width="2" ry="1.03616" rx="0.09159" id="svg_9" cy="41.22196" cx="24.75002" fill="#fff"/>
  <ellipse transform="rotate(134.486 21.9167 50.7219)" stroke="#000" stroke-width="2" ry="1.03616" rx="0.09159" id="svg_10" cy="50.72193" cx="21.9167" fill="#fff"/>
  <ellipse transform="rotate(179.761 15.2501 54.7219)" stroke="#000" stroke-width="2" ry="1.03616" rx="0.09159" id="svg_11" cy="54.72192" cx="15.25005" fill="#fff"/>
  <ellipse transform="rotate(-137.488 8.41674 52.0553)" stroke="#000" stroke-width="2" ry="1.03616" rx="0.09159" id="svg_12" cy="52.05526" cx="8.41674" fill="#fff"/>
  <ellipse transform="rotate(-96.5405 4.91675 41.3886)" stroke="#000" stroke-width="2" ry="1.03616" rx="0.09159" id="svg_13" cy="41.38863" cx="4.91675" fill="#fff"/>
  <ellipse transform="rotate(-69.1849 5.75009 34.222)" stroke="#000" stroke-width="2" ry="1.03616" rx="0.09159" id="svg_14" cy="34.22199" cx="5.75008" fill="#fff"/>
  <ellipse transform="rotate(-3.68753 40.5833 26.5554)" stroke="#000" stroke-width="2" ry="1.03616" rx="0.09159" id="svg_15" cy="26.55535" cx="40.5833" fill="#fff"/>
  <ellipse transform="rotate(36.445 46.4166 29.0554)" stroke="#000" stroke-width="2" ry="1.03616" rx="0.09159" id="svg_16" cy="29.05534" cx="46.41661" fill="#fff"/>
  <ellipse transform="rotate(67.902 49.7499 34.3887)" stroke="#000" stroke-width="2" ry="1.03616" rx="0.09159" id="svg_17" cy="34.38865" cx="49.74993" fill="#fff"/>
  <ellipse transform="rotate(93.6946 50.5832 41.3887)" stroke="#000" stroke-width="2" ry="1.03616" rx="0.09159" id="svg_18" cy="41.38863" cx="50.58326" fill="#fff"/>
  <ellipse transform="rotate(134.486 47.7499 50.8886)" stroke="#000" stroke-width="2" ry="1.03616" rx="0.09159" id="svg_19" cy="50.8886" cx="47.74994" fill="#fff"/>
  <ellipse transform="rotate(179.761 41.0833 54.8886)" stroke="#000" stroke-width="2" ry="1.03616" rx="0.09159" id="svg_20" cy="54.88858" cx="41.0833" fill="#fff"/>
  <ellipse transform="rotate(-137.488 34.25 52.222)" stroke="#000" stroke-width="2" ry="1.03616" rx="0.09159" id="svg_21" cy="52.22193" cx="34.24999" fill="#fff"/>
  <ellipse transform="rotate(-96.5405 30.75 41.5553)" stroke="#000" stroke-width="2" ry="1.03616" rx="0.09159" id="svg_22" cy="41.5553" cx="30.75" fill="#fff"/>
  <ellipse transform="rotate(-69.1849 31.5833 34.3887)" stroke="#000" stroke-width="2" ry="1.03616" rx="0.09159" id="svg_23" cy="34.38865" cx="31.58333" fill="#fff"/>
  <ellipse transform="rotate(-40.7068 34.5833 29.722)" stroke="#000" stroke-width="2" ry="1.03616" rx="0.09159" id="svg_24" cy="29.722" cx="34.58332" fill="#fff"/>
  <ellipse ry="5.74998" rx="0.25" id="svg_25" cy="26.13869" cx="56.41658" stroke-width="2" stroke="#000" fill="#fff"/>
  <ellipse transform="rotate(16.7943 56.9166 19.472)" ry="1.58333" rx="0.08333" id="svg_27" cy="19.47204" cx="56.91658" stroke-width="2" stroke="#000" fill="#fff"/>
 </g>
</svg>