<!DOCTYPE svg PUBLIC "-//W3C//DTD SVG 1.1//EN" "http://www.w3.org/Graphics/SVG/1.1/DTD/svg11.dtd">
<!-- Uploaded to: SVG Repo, www.svgrepo.com, Transformed by: SVG Repo Mixer Tools -->
<svg fill="#000000" height="64px" width="64px" version="1.1" id="Layer_1" xmlns="http://www.w3.org/2000/svg" xmlns:xlink="http://www.w3.org/1999/xlink" viewBox="0 0 512 512" xml:space="preserve" stroke="#000000" stroke-width="4.096">
<g id="SVGRepo_bgCarrier" stroke-width="0"/>
<g id="SVGRepo_tracerCarrier" stroke-linecap="round" stroke-linejoin="round"/>
<g id="SVGRepo_iconCarrier"> <g> <g> <g> <path d="M162.63,266.948c-4.726-3.429-11.337-2.378-14.767,2.348l-0.188,0.26c-3.43,4.726-2.379,11.337,2.348,14.767 c1.876,1.361,4.048,2.016,6.201,2.016c3.271,0,6.498-1.514,8.566-4.363l0.188-0.26 C168.406,276.989,167.356,270.378,162.63,266.948z"/> <path d="M501.427,326.91h-10.573v-36.74l-0.011-0.012c-0.001-0.884-0.102-1.772-0.329-2.645l-23.356-89.945 c-4.477-17.221-20.029-29.247-37.816-29.247h-60.073v-27.841c0-2.979-1.257-5.82-3.461-7.824l-14.447-13.129 c-4.322-3.928-11.009-3.608-14.935,0.714c-3.928,4.321-3.607,11.008,0.714,14.935l10.986,9.984v54.88h-31.718 c-5.838,0-10.573,4.733-10.573,10.573v116.298h-80.937l46.672-64.242c7.907-10.876,7.606-25.846-0.732-36.408l-41.18-52.133 c-0.069-0.088-0.138-0.173-0.21-0.259c-8.909-10.576-19.781-18.909-32.313-24.767c-0.241-0.112-3.611-1.399-3.611-1.399 c-0.003-0.001-0.006-0.002-0.01-0.003c-0.002-0.001-0.003-0.001-0.005-0.002l-98.843-37.262l2.697-3.711 c3.432-4.724,2.384-11.336-2.339-14.768c-4.724-3.432-11.336-2.384-14.768,2.339L2.02,201.98 c-3.432,4.724-2.384,11.336,2.339,14.768c1.877,1.364,4.051,2.019,6.206,2.019c3.269,0,6.494-1.512,8.563-4.359l2.621-3.607 l8.143,10.352v105.757H10.86c-5.839,0-10.573,4.733-10.573,10.573v42.29c0,5.839,4.733,10.573,10.573,10.573h32.162 c7.384,18.558,25.515,31.718,46.673,31.718c16.104,0,30.451-7.628,39.647-19.45c9.196,11.822,23.543,19.45,39.647,19.45 c21.158,0,39.289-13.16,46.673-31.718h136.011c7.384,18.558,25.515,31.718,46.673,31.718s39.289-13.16,46.673-31.718h56.41 c5.838,0,10.573-4.733,10.573-10.573v-42.29C511.999,331.644,507.265,326.91,501.427,326.91z M81.779,128.175l91.297,34.418 L95.126,269.885l-60.461-76.863L81.779,128.175z M39.544,369.201H21.432v-21.145h24.045 C42.044,354.41,39.94,361.583,39.544,369.201z M89.694,400.918c-16.032,0-29.075-13.042-29.075-29.075 c0-16.032,13.042-29.075,29.075-29.075s29.075,13.042,29.075,29.075C118.768,387.876,105.725,400.918,89.694,400.918z M129.34,341.076c-9.196-11.822-23.543-19.45-39.647-19.45c-8.043,0-15.643,1.911-22.39,5.286H51.035v-78.877l36.116,45.914 c0.001,0.002,0.003,0.003,0.004,0.005c0,0,2.277,2.876,2.48,3.095c9.455,10.126,20.745,17.896,33.558,23.093 c0.1,0.041,0.202,0.08,0.305,0.118l20.994,7.768C138.609,331.329,133.459,335.78,129.34,341.076z M168.988,400.918 c-16.032,0-29.075-13.042-29.075-29.075c0-16.032,13.042-29.075,29.075-29.075c16.032,0,29.075,13.042,29.075,29.075 C198.063,387.876,185.019,400.918,168.988,400.918z M203.548,320.321c-2.366,3.252-6.652,4.547-10.417,3.154l-62.136-22.99 c-8.129-3.318-15.469-7.974-21.883-13.876l84.104-115.761c6.193,3.492,11.781,7.84,16.716,12.963l-40.778,56.126 c-3.432,4.724-2.384,11.336,2.339,14.768c1.877,1.364,4.051,2.019,6.206,2.019c3.269,0,6.494-1.512,8.563-4.359l37.489-51.599 l30.491,38.602c2.491,3.155,2.583,7.625,0.223,10.87c-0.001,0.001-0.002,0.003-0.003,0.004L203.548,320.321z M348.124,369.201 H219.137c-0.396-7.617-2.5-14.791-5.933-21.145h134.921V369.201z M348.124,326.91h-21.145V221.185h21.145V326.91z M466.613,279.598h-48.361V230.7h35.666L466.613,279.598z M398.344,400.918c-16.031,0-29.075-13.042-29.075-29.075 c0-16.032,13.043-29.075,29.075-29.075s29.075,13.042,29.075,29.075C427.419,387.876,414.375,400.918,398.344,400.918z M420.734,326.91c-6.746-3.376-14.347-5.286-22.39-5.286c-10.831,0-20.863,3.458-29.075,9.311V189.467h60.073 c8.161,0,15.296,5.52,17.351,13.422l1.733,6.666H407.68c-5.838,0-10.573,4.733-10.573,10.573v70.043 c0,5.839,4.734,10.573,10.573,10.573h62.029v26.167H420.734z M490.854,369.201h-42.36c-0.396-7.617-2.5-14.791-5.933-21.145 h48.293V369.201z"/> </g> </g> </g> </g>
</svg>