<!DOCTYPE svg PUBLIC "-//W3C//DTD SVG 1.1//EN" "http://www.w3.org/Graphics/SVG/1.1/DTD/svg11.dtd">
<!-- Uploaded to: SVG Repo, www.svgrepo.com, Transformed by: SVG Repo Mixer Tools -->
<svg fill="#000000" height="64px" width="64px" version="1.1" id="Layer_1" xmlns="http://www.w3.org/2000/svg" xmlns:xlink="http://www.w3.org/1999/xlink" viewBox="0 0 512 512" xml:space="preserve" stroke="#000000" stroke-width="20.48">
<g id="SVGRepo_bgCarrier" stroke-width="0"/>
<g id="SVGRepo_tracerCarrier" stroke-linecap="round" stroke-linejoin="round"/>
<g id="SVGRepo_iconCarrier"> <g> <g> <path d="M478.934,137.835h-145.49c-10.971,0-21.198,5.419-27.361,14.498l-53.675,79.098l-13.202-124.129 c-2.854-26.761-25.302-46.941-52.215-46.941H58.421c-20.967,0-38.026,17.059-38.026,38.026v232.012 c0,6.087,4.935,11.022,11.022,11.022h31.959v22.044H44.088C19.778,363.464,0,383.242,0,407.552 c0,24.31,19.778,44.088,44.088,44.088h203.906c24.31,0,44.088-19.778,44.088-44.088c0-24.31-19.778-44.088-44.088-44.088h-19.288 V341.42h23.151c3.126,0,6.106-1.328,8.197-3.653c0.335-0.373,0.632-0.772,0.909-1.18l0.01,0.002l89.994-132.623h94.902v162.396 l-51.391,67.583c-2.535,3.333-2.963,7.816-1.101,11.568c1.86,3.752,5.686,6.126,9.875,6.126h62.993 c25.23,0,45.756-20.526,45.756-45.756V170.901C512,152.668,497.167,137.835,478.934,137.835z M86.527,82.403h100.465 c15.616,0.001,28.641,11.71,30.296,27.233l17.616,165.651h-71.228v-40.96l20.413-33.069l7.905,4.335 c1.681,0.923,3.498,1.36,5.289,1.36c3.894,0,7.669-2.069,9.674-5.725c2.927-5.337,0.973-12.037-4.365-14.963l-34.168-18.737 c-5.335-2.926-12.035-0.973-14.963,4.365c-2.927,5.337-0.973,12.037,4.365,14.963l6.91,3.789l-18.23,29.532H86.527V82.403z M86.527,242.223h55.105v33.066H86.527V242.223z M247.994,385.508c12.156,0,22.044,9.889,22.044,22.044 c0,12.155-9.889,22.044-22.044,22.044H44.088c-12.155,0-22.044-9.889-22.044-22.044s9.889-22.044,22.044-22.044H247.994z M85.42,363.464V341.42h121.241v22.044H85.42z M42.439,319.376V98.386c0-8.812,7.17-15.982,15.982-15.982h6.062L64.478,286.31 c0,6.087,4.935,11.022,11.022,11.022h0.004h161.745l2.346,22.044H42.439z M259.628,299.31l-3.611-33.938l65.868-97.068 l10.654,23.559L259.628,299.31z M352.238,181.923l-9.969-22.044h132.389l-22.296,22.044H352.238z M489.956,405.883 c0,13.075-10.637,23.713-23.713,23.713h-40.765l36.877-48.497h27.6V405.883z M489.956,359.056h-22.044V197.547l22.044-21.794 V359.056z"/> </g> </g> </g>
</svg>