<!DOCTYPE svg PUBLIC "-//W3C//DTD SVG 1.1//EN" "http://www.w3.org/Graphics/SVG/1.1/DTD/svg11.dtd">
<!-- Uploaded to: SVG Repo, www.svgrepo.com, Transformed by: SVG Repo Mixer Tools -->
<svg fill="#000000" height="64px" width="64px" version="1.1" id="Layer_1" xmlns="http://www.w3.org/2000/svg" xmlns:xlink="http://www.w3.org/1999/xlink" viewBox="0 0 511.999 511.999" xml:space="preserve" stroke="#000000" stroke-width="1.535997">
<g id="SVGRepo_bgCarrier" stroke-width="0"/>
<g id="SVGRepo_tracerCarrier" stroke-linecap="round" stroke-linejoin="round"/>
<g id="SVGRepo_iconCarrier"> <g> <g> <g> <path d="M510.127,71.942l-24.066-34.939c-1.595-2.316-4.046-3.904-6.813-4.413c-2.767-0.511-5.621,0.101-7.939,1.696 L204.084,218.354c-0.004,0.003-0.008,0.006-0.013,0.008l-0.08,0.055c-0.024,0.017-0.039,0.034-0.062,0.051 c-2.735,1.919-4.528,5.09-4.528,8.684v23.271l-101.08,74.309H10.607C4.749,324.731,0,329.481,0,335.338v90.155 C0,431.35,4.749,436.1,10.607,436.1h35.879c4.511,24.7,26.173,43.487,52.155,43.487s47.644-18.786,52.155-43.487H229.1v19.445 h-8.485c-5.858,0-10.607,4.75-10.607,10.607c0,5.857,4.749,10.607,10.607,10.607h38.183c5.858,0,10.607-4.75,10.607-10.607 c0-5.857-4.749-10.607-10.607-10.607h-8.485V436.1h60.273c4.511,24.7,26.173,43.487,52.155,43.487 c29.242,0,53.033-23.79,53.033-53.032c0-19.4-10.477-36.392-26.064-45.638v-68.865c0-1.231-0.214-2.453-0.634-3.612 L348.43,196.201l66.284-45.658v54.623c0,5.857,4.749,10.606,10.607,10.606s10.607-4.75,10.607-10.606v-69.235l29.314-20.193 v49.896c0,5.857,4.749,10.607,10.607,10.607s10.607-4.75,10.607-10.607v-64.508l20.954-14.434 C512.232,83.37,513.45,76.766,510.127,71.942z M199.402,276.751v47.981h-65.267L199.402,276.751z M98.64,458.374 c-17.545,0-31.82-14.274-31.82-31.819c0-17.545,14.274-31.82,31.82-31.82c17.545,0,31.819,14.274,31.819,31.82 C130.46,444.1,116.186,458.374,98.64,458.374z M229.1,414.888h-78.736c-5.332-23.646-26.491-41.365-51.724-41.365 s-46.392,17.719-51.724,41.365H21.213v-68.942h180.998l26.89,40.333V414.888z M245.383,372.462l-24.768-37.152v-97.551h64.183 h2.784v0.001l8.004,20.759l-30.288,30.288c-4.142,4.142-4.142,10.858,0,15.001c2.071,2.07,4.786,3.107,7.5,3.107 c2.714,0,5.43-1.036,7.5-3.107l23.636-23.635l14.261,36.989v55.301H245.383z M311.019,414.888h-60.705v-21.213h70.865 C316.324,399.799,312.794,407.012,311.019,414.888z M394.562,426.555c0,17.545-14.274,31.819-31.82,31.819 c-17.545,0-31.819-14.274-31.819-31.819c0-17.545,14.274-31.82,31.819-31.82C380.287,394.735,394.562,409.01,394.562,426.555z M368.497,313.913v59.927c-1.891-0.205-3.81-0.318-5.755-0.318c-8.37,0-16.288,1.956-23.334,5.424v-63.76 c0-1.305-0.241-2.598-0.71-3.816l-33.044-85.705l24.718-17.027L368.497,313.913z M281.499,216.546h-37.394L474.608,57.77 l12.033,17.47L281.499,216.546z"/> <path d="M241.809,312.293l-0.199,0.199c-4.142,4.142-4.142,10.858,0,15.001c2.071,2.07,4.787,3.107,7.501,3.107 c2.714,0,5.43-1.036,7.5-3.107l0.199-0.199c4.142-4.142,4.142-10.858,0-15.001C252.668,308.152,245.952,308.152,241.809,312.293z "/> </g> </g> </g> </g>
</svg>