<!DOCTYPE svg PUBLIC "-//W3C//DTD SVG 1.1//EN" "http://www.w3.org/Graphics/SVG/1.1/DTD/svg11.dtd">
<!-- Uploaded to: SVG Repo, www.svgrepo.com, Transformed by: SVG Repo Mixer Tools -->
<svg fill="#000000" height="64px" width="64px" version="1.1" id="Capa_1" xmlns="http://www.w3.org/2000/svg" xmlns:xlink="http://www.w3.org/1999/xlink" viewBox="0 0 511.001 511.001" xml:space="preserve" stroke="#000000" stroke-width="10.22002">
<g id="SVGRepo_bgCarrier" stroke-width="0"/>
<g id="SVGRepo_tracerCarrier" stroke-linecap="round" stroke-linejoin="round"/>
<g id="SVGRepo_iconCarrier"> <path d="M508.453,284.018l-15.826-36.926C487.657,235.494,476.292,228,463.674,228h-45.068l-9.117-9.117 c-4.438-4.439-10.34-6.883-16.617-6.883H375v-16.5c0-4.142-3.358-7.5-7.5-7.5s-7.5,3.358-7.5,7.5V212H255.5 c-12.958,0-23.5,10.542-23.5,23.5v112.73c-1.305,0.167-2.581,0.424-3.822,0.767L44.88,74.241C39.04,65.324,29.189,60,18.53,60H7.5 C3.358,60,0,63.358,0,67.5S3.358,75,7.5,75h11.03c5.583,0,10.743,2.789,13.837,7.512l182.988,274.294 c-4.56,4.91-7.355,11.48-7.355,18.694c0,15.164,12.336,27.5,27.5,27.5c4.5,0,8.747-1.093,12.5-3.018v3.518 c0,3.228,2.066,6.094,5.128,7.115l48,16c0.765,0.255,1.565,0.385,2.372,0.385h96c10.331,0,19.12-6.704,22.262-15.988h1.998 C431.158,420.97,442.952,427,455.5,427c14.798,0,27.714-8.184,34.479-20.259c3.981,3.252,6.281,8.244,5.997,13.658 c-0.451,8.603-8.451,15.602-17.834,15.602H302.127c-2.271,0-4.405-0.884-6.011-2.49l-3.313-3.313c-2.929-2.929-7.678-2.929-10.606,0 c-2.929,2.929-2.929,7.678,0,10.606l3.313,3.313c4.438,4.439,10.34,6.883,16.617,6.883h176.015 c17.525,0,31.938-13.097,32.814-29.817c0.645-12.32-5.72-23.516-16.209-29.267c0.162-1.451,0.253-2.923,0.253-4.416 c0-15.181-8.866-29.196-22.587-35.705c-0.091-0.043-0.183-0.075-0.275-0.114l-1.859-0.99c0.457-0.969,0.72-2.048,0.72-3.191v-15.865 l25,12.5V355.5c0,4.142,3.358,7.5,7.5,7.5s7.5-3.358,7.5-7.5v-16v-43.074C511,292.136,510.143,287.961,508.453,284.018z M478.84,253.001l15.826,36.926c0.885,2.065,1.334,4.252,1.334,6.5v30.938l-81-40.5V243.5c0-0.276,0.224-0.5,0.5-0.5h48.174 C470.284,243,476.237,246.926,478.84,253.001z M255.5,227h137.373c2.271,0,4.405,0.884,6.011,2.49l4.445,4.445 c-2.077,2.637-3.328,5.955-3.328,9.565v48c0,2.841,1.605,5.438,4.146,6.708l3.854,1.927v17.365l-21.175-11.285 c2.472-1.227,4.175-3.769,4.175-6.715v-46c0-5.238-4.262-9.5-9.5-9.5h-60c-5.238,0-9.5,4.262-9.5,9.5v38.229l-13.799-5.914 c-5.77-2.473-12.157-2.55-17.985-0.22c-5.639,2.256-10.083,6.517-12.606,12.016L247,288.321V235.5 C247,230.813,250.813,227,255.5,227z M247,304.775l14.674,6.615l-0.632,1.475c-5.104,11.91,0.432,25.752,12.342,30.857 l23.664,10.142c0.147,0.719,0.317,1.429,0.494,2.137H255.5c-0.202,0-0.401,0.015-0.599,0.03c-2.276-2.269-4.95-4.136-7.901-5.501 V304.775z M262.626,371H303.5c0.16,0,0.317-0.014,0.474-0.024c2.074,3.273,4.497,6.304,7.233,9.024h-48.582 c0.242-1.465,0.374-2.967,0.374-4.5S262.868,372.466,262.626,371z M296.391,337.262l-17.098-7.328 c-2.087-0.895-3.701-2.548-4.544-4.656c-0.843-2.108-0.815-4.418,0.08-6.505l6.303-14.707c0.895-2.086,2.548-3.7,4.656-4.543 c2.109-0.842,4.418-0.814,6.505,0.08l18.428,7.897C302.996,315.391,297.789,325.745,296.391,337.262z M327,292v-33h49v33H327z M235.5,388c-6.893,0-12.5-5.607-12.5-12.5s5.607-12.5,12.5-12.5s12.5,5.607,12.5,12.5S242.393,388,235.5,388z M399.5,412h-94.783 L263,398.095V395h136.5c4.687,0,8.5,3.813,8.5,8.5S404.187,412,399.5,412z M455.5,412c-8.716,0-16.848-4.692-21.222-12.247 c-1.341-2.316-3.814-3.742-6.49-3.742h-6.019C418.635,386.716,409.84,380,399.5,380h-52c-20.126,0-36.5-16.374-36.5-36.5 s16.374-36.5,36.5-36.5c4.93,0,9.71,0.964,14.206,2.865c0.104,0.044,0.209,0.075,0.314,0.114c0.066,0.038,0.128,0.081,0.196,0.118 l103.445,55.13c0.24,0.128,0.486,0.235,0.733,0.334C474.671,369.684,480,378.237,480,387.5C480,401.01,469.009,412,455.5,412z M456,343.082l-33.243-17.717c0.153-0.597,0.243-1.22,0.243-1.865v-15.865l33,16.5V343.082z"/> </g>
</svg>