<!DOCTYPE svg PUBLIC "-//W3C//DTD SVG 1.1//EN" "http://www.w3.org/Graphics/SVG/1.1/DTD/svg11.dtd">
<!-- Uploaded to: SVG Repo, www.svgrepo.com, Transformed by: SVG Repo Mixer Tools -->
<svg fill="#000000" height="64px" width="64px" version="1.1" id="Layer_1" xmlns="http://www.w3.org/2000/svg" xmlns:xlink="http://www.w3.org/1999/xlink" viewBox="0 0 512 512" xml:space="preserve" stroke="#000000" stroke-width="9.728">
<g id="SVGRepo_bgCarrier" stroke-width="0"/>
<g id="SVGRepo_tracerCarrier" stroke-linecap="round" stroke-linejoin="round"/>
<g id="SVGRepo_iconCarrier"> <g> <g> <g> <path d="M276.771,348.278h-34.272c-5.736,0-10.385,4.651-10.385,10.385c0,5.735,4.65,10.385,10.385,10.385h34.272 c5.736,0,10.385-4.651,10.385-10.385C287.156,352.928,282.507,348.278,276.771,348.278z"/> <path d="M276.771,306.736h-34.272c-5.736,0-10.385,4.651-10.385,10.385s4.65,10.385,10.385,10.385h34.272 c5.736,0,10.385-4.651,10.385-10.385S282.507,306.736,276.771,306.736z"/> <path d="M253.543,166.246l-0.476,0.477c-4.053,4.058-4.05,10.634,0.007,14.688c2.027,2.025,4.683,3.038,7.339,3.038 c2.66,0,5.319-1.016,7.348-3.046l0.476-0.477c4.053-4.058,4.05-10.634-0.007-14.688 C264.171,162.184,257.595,162.187,253.543,166.246z"/> <path d="M253.549,219.528l-0.476,0.476c-4.058,4.053-4.062,10.629-0.007,14.688c2.028,2.031,4.688,3.046,7.348,3.046 c2.656,0,5.312-1.013,7.339-3.038l0.476-0.476c4.058-4.053,4.062-10.629,0.007-14.688 C264.184,215.479,257.607,215.476,253.549,219.528z"/> <path d="M470.458,327.592v-20.337h31c5.736,0,10.385-4.651,10.385-10.385v-62.312c0-5.396-4.132-9.893-9.51-10.349 l-133.219-11.265L349.392,55.157c-0.649-5.198-5.067-9.098-10.305-9.098H173.958c-5.214,0-9.619,3.865-10.297,9.033 L142.94,212.969l-30.952,2.617V175.36c0-2.466-0.878-4.851-2.475-6.729l-12.808-15.059c-3.717-4.371-10.271-4.901-14.639-1.183 c-4.369,3.716-4.898,10.271-1.182,14.639l10.333,12.15v38.163l-81.189,6.865c-5.378,0.455-9.51,4.953-9.51,10.349v62.312 c0,5.735,4.65,10.385,10.385,10.385h30.637v20.337C17.006,339.278,0,364.304,0,393.241c0,40.086,32.612,72.698,72.698,72.698 c40.086,0,72.698-32.612,72.698-72.698c0-28.939-17.006-53.964-41.542-65.651v-20.337h28.104l12.81,28.184 c1.205,2.651,3.467,4.674,6.235,5.577l24.69,8.049v59.967c0,5.735,4.65,10.385,10.385,10.385h140.203 c5.736,0,10.385-4.651,10.385-10.385v-59.966l24.69-8.049c2.769-0.902,5.031-2.926,6.235-5.577l12.81-28.184h27.743v20.337 c-24.536,11.688-41.542,36.713-41.542,65.651c0,40.086,32.612,72.698,72.698,72.698c40.086,0,72.698-32.612,72.698-72.698 C512,364.305,494.994,339.279,470.458,327.592z M227.961,66.833h101.956l2.562,20.478l-51.886,51.886 c-4.056,4.056-4.056,10.632,0,14.688c2.028,2.027,4.686,3.042,7.344,3.042s5.316-1.015,7.344-3.042l40.464-40.463l2.664,21.313 c-0.222,0.188-0.442,0.379-0.652,0.589l-57.163,57.163c-4.055,4.055-4.055,10.632,0,14.688c2.028,2.027,4.686,3.042,7.344,3.042 s5.316-1.015,7.344-3.042l46.384-46.384l7.498,59.99l-16.494,32.988H227.961V66.833z M183.07,66.832h24.122v186.937h-26.956 L162.874,220.7L183.07,66.832z M124.625,393.242c0,28.633-23.294,51.927-51.927,51.927c-28.633,0-51.927-23.294-51.927-51.927 c0-16.948,8.17-32.013,20.771-41.494v28.204c0,17.18,13.977,31.156,31.156,31.156s31.156-13.977,31.156-31.156v-28.204 C116.455,361.23,124.625,376.295,124.625,393.242z M62.312,379.953v-72.698h20.771v72.698c0,5.727-4.659,10.385-10.385,10.385 S62.312,385.68,62.312,379.953z M373.718,286.486v-0.001c-4.072,0-7.769,2.38-9.455,6.088l-13.687,30.111l-27.513,8.969 c-4.274,1.394-7.166,5.379-7.166,9.874v57.12H196.466v-57.12c0-4.496-2.892-8.481-7.166-9.874l-27.513-8.969L148.1,292.573 c-1.686-3.708-5.382-6.088-9.455-6.088H21.29v-42.383l124.868-10.559l18.604,35.438c1.795,3.417,5.336,5.558,9.195,5.558h165.128 c3.934,0,7.529-2.223,9.289-5.741l17.635-35.271l125.062,10.575v42.383H373.718z M449.688,307.256v72.698 c0,5.727-4.659,10.385-10.385,10.385c-5.727,0-10.385-4.659-10.385-10.385v-72.698H449.688z M439.302,445.169 c-28.633,0-51.927-23.294-51.927-51.927c0-16.948,8.17-32.013,20.771-41.494v28.204c0,17.18,13.977,31.156,31.156,31.156 c17.18,0,31.156-13.977,31.156-31.156v-28.204c12.601,9.481,20.771,24.546,20.771,41.494 C491.229,421.876,467.935,445.169,439.302,445.169z"/> </g> </g> </g> </g>
</svg>