<svg width="64" height="64" xmlns="http://www.w3.org/2000/svg" xml:space="preserve" version="1.1" fill="#000000">
 <g id="Layer_1">
  <title>Layer 1</title>
  <ellipse stroke-width="2" stroke="#000" ry="3.75" rx="3.75" id="svg_5" cy="58" cx="12.33335" fill="none"/>
  <ellipse stroke-width="2" stroke="#000" ry="3.75" rx="3.75" id="svg_6" cy="57.63884" cx="41.16666" fill="none"/>
  <line stroke-width="2" id="svg_7" y2="58.05547" x2="37.49999" y1="58.05547" x1="16.00001" stroke="#000" fill="none"/>
  <line stroke-width="2" id="svg_8" y2="57.72214" x2="8.33335" y1="57.72214" x1="4.50002" stroke="#000" fill="none"/>
  <line stroke-width="2" id="svg_9" y2="57.88881" x2="49.16665" y1="57.88881" x1="45.33332" stroke="#000" fill="none"/>
  <line stroke="#000" stroke-width="2" id="svg_10" y2="48.05548" x2="5.00002" y1="58.72214" x1="5.00002" fill="none"/>
  <line stroke-width="2" id="svg_11" y2="49.22215" x2="42.16665" y1="49.05548" x1="4.50002" stroke="#000" fill="none"/>
  <line stroke="#000" stroke-width="2" id="svg_12" y2="51.66667" x2="48.66664" y1="58.88881" x1="48.66664" fill="none"/>
  <path stroke-width="2" stroke="#000" id="svg_13" d="m41.83332,49.22215l7.16666,3.33333" opacity="undefined" fill="none"/>
  <rect stroke-width="2" stroke="#000" id="svg_14" height="7.83333" width="18.16665" y="13.77774" x="43.83326" fill="none"/>
  <rect stroke="#000" id="svg_15" height="8.33333" width="7.33333" y="40.44438" x="6.66663" stroke-width="2" fill="none"/>
  <rect id="svg_18" height="6.16666" width="2.83333" y="7.77774" x="35.99994" stroke-width="2" stroke="#000" fill="none"/>
  <line stroke-width="2" id="svg_21" y2="21.61106" x2="48.49993" y1="13.9444" x1="48.49993" stroke="#000" fill="none"/>
  <line id="svg_22" y2="21.77773" x2="56.66659" y1="14.27774" x1="56.66659" stroke-width="2" stroke="#000" fill="none"/>
  <line id="svg_23" y2="17.4444" x2="61.66658" y1="17.27773" x1="44.33326" stroke-width="2" stroke="#000" fill="none"/>
  <line stroke-width="20" id="svg_27" y2="57.61103" x2="26.83328" y1="49.7777" x1="26.66661" stroke="#000" fill="none"/>
  <ellipse transform="rotate(48.3036 40.3333 13.5)" ry="0.16667" rx="3.66666" id="svg_30" cy="13.49996" cx="40.33327" stroke-width="3" stroke="#000" fill="none"/>
  <line stroke="#000" id="svg_32" y2="47.99993" x2="9.99996" y1="41.33327" x1="9.99996" stroke-width="6" fill="none"/>
  <ellipse transform="rotate(-47.2782 22.0509 25.3364)" stroke="#000" ry="0.08333" rx="19.21625" id="svg_34" cy="25.33644" cx="22.05088" stroke-width="4" fill="none"/>
 </g>
</svg>