<svg id="Layer_1" data-name="Layer 1" xmlns="http://www.w3.org/2000/svg" width="64" height="64" viewBox="0 0 64 64"><path d="M63.47,39.71l-6.31-9.46a3.14,3.14,0,0,0-2.62-1.41H41.92A3.16,3.16,0,0,0,38.77,32V48.07H32.28l-7,0V44.62h4a3.16,3.16,0,0,0,3.16-3.16V35.15a3.21,3.21,0,0,0-.69-2L26.5,26.6,50.17,12.93a7.84,7.84,0,0,0,1,.11,6.41,6.41,0,0,1-1.39,2.85,5.66,5.66,0,0,0-1.51,3.89,4.73,4.73,0,1,0,9.46,0,1.58,1.58,0,1,0-3.15,0,1.58,1.58,0,0,1-3.16,0,2.72,2.72,0,0,1,.84-2,9.49,9.49,0,0,0,2.21-5.54l.11,0A6.31,6.31,0,1,0,48.23,1.3,5.75,5.75,0,0,0,47,2.39L8.21,16.23H4.07A3.15,3.15,0,0,0,.92,19.38V41.46a3.16,3.16,0,0,0,3.15,3.16H7.63v3.5H3.69a.84.84,0,0,0-.84.83v5.1l-1.27,0A1.58,1.58,0,0,0,0,55.92a1.63,1.63,0,0,0,1.64,1.31H3a7.41,7.41,0,0,0,14.7-1.34,7.41,7.41,0,0,0,14.7,1.34h9.7a7.88,7.88,0,0,0,15.45,0h3.32A3.15,3.15,0,0,0,64,54.08V41.46A3.13,3.13,0,0,0,63.47,39.71ZM49.8,4a3.16,3.16,0,1,1-1.15,4.31A3.17,3.17,0,0,1,49.8,4ZM10.27,60.62A4.73,4.73,0,1,1,15,55.89,4.73,4.73,0,0,1,10.27,60.62ZM17.45,32a.76.76,0,0,1-.76-.76V21.55A.76.76,0,0,1,18,21.07l7.75,9.69A.76.76,0,0,1,25.2,32Zm7.64,28.62a4.73,4.73,0,1,1,4.73-4.73A4.73,4.73,0,0,1,25.09,60.62Zm24.72-.23a4.74,4.74,0,1,1,4.73-4.73A4.74,4.74,0,0,1,49.81,60.39Zm8-20.5H43a1.07,1.07,0,0,1-1.08-1.07V33.08A1.08,1.08,0,0,1,43,32H54a1.08,1.08,0,0,1,.9.48l3.82,5.73A1.08,1.08,0,0,1,57.78,39.89Z"/></svg>