<!DOCTYPE svg PUBLIC "-//W3C//DTD SVG 1.1//EN" "http://www.w3.org/Graphics/SVG/1.1/DTD/svg11.dtd">
<!-- Uploaded to: SVG Repo, www.svgrepo.com, Transformed by: SVG Repo Mixer Tools -->
<svg fill="#000000" height="64px" width="64px" version="1.1" id="Layer_1" xmlns="http://www.w3.org/2000/svg" xmlns:xlink="http://www.w3.org/1999/xlink" viewBox="0 0 512 512" xml:space="preserve" stroke="#000000" stroke-width="2.56">
<g id="SVGRepo_bgCarrier" stroke-width="0"/>
<g id="SVGRepo_tracerCarrier" stroke-linecap="round" stroke-linejoin="round"/>
<g id="SVGRepo_iconCarrier"> <g> <g> <path d="M510.934,210.784l0.002-0.004l-3.582-7.527c-12.423-26.172-38.116-42.728-67.078-43.236l-250.826-10.701 c-0.078-0.003-0.155,0.003-0.233,0.001c-0.079-0.001-0.156-0.012-0.235-0.012H26.244c-6.058,0-10.971,4.912-10.971,10.971v92.708 c0,6.059,4.913,10.971,10.971,10.971H34.4l-14.823,21.943h-8.605C4.913,285.897,0,290.809,0,296.868 c0,6.06,4.913,10.971,10.971,10.971h14.433h0.617c-2.378,4.991-3.713,10.571-3.713,16.457c0,21.174,17.226,38.4,38.4,38.4 c10.737,0,20.453-4.435,27.428-11.563c6.976,7.127,16.692,11.563,27.428,11.563c10.927,0,20.795-4.596,27.794-11.946 c7,7.351,16.867,11.946,27.794,11.946c21.174,0,38.4-17.226,38.4-38.4c0-5.886-1.335-11.466-3.713-16.457h58.259 c-2.378,4.991-3.713,10.571-3.713,16.457c0,21.174,17.226,38.4,38.4,38.4c10.737,0,20.453-4.435,27.428-11.563 c6.976,7.127,16.692,11.563,27.428,11.563c17.026,0,31.493-11.144,36.509-26.518l84.907,0.003c6.058,0,10.971-4.912,10.971-10.971 s-4.913-10.971-10.971-10.971h-3.827l-4.389-87.774h20.131l-3.358,13.434c-1.47,5.878,2.104,11.835,7.982,13.304 c0.893,0.224,1.789,0.33,2.67,0.33c4.915,0,9.389-3.328,10.635-8.313l6.766-27.063 C512.313,215.588,511.991,213.002,510.934,210.784z M93.257,171.247h84.754v32.326l-84.754-7.041V171.247z M37.215,171.247h34.099 v35.383c0,5.707,4.375,10.461,10.063,10.934l88.491,7.352l-11.008,17.097H37.215V171.247z M60.708,340.755 c-9.074,0-16.457-7.383-16.457-16.457c0-9.074,7.383-16.457,16.457-16.457c9.074,0,16.457,7.383,16.457,16.457 C77.165,333.372,69.782,340.755,60.708,340.755z M115.565,340.755c-9.074,0-16.457-7.383-16.457-16.457 c0-9.074,7.383-16.457,16.457-16.457c9.074,0,16.457,7.383,16.457,16.457C132.022,333.372,124.639,340.755,115.565,340.755z M142.403,296.87c-6.928-6.78-16.401-10.971-26.837-10.971s-19.909,4.191-26.837,10.971c-0.394,0-0.788,0-1.182,0 c-6.928-6.78-16.401-10.971-26.837-10.971c-5.624,0-10.965,1.225-15.783,3.408l1.132-3.408l14.823-21.943h93.459v0l14.825,21.943 l0.009,0.05c-9.653,0.493-18.37,4.572-24.858,10.921C143.679,296.87,143.04,296.87,142.403,296.87z M171.153,340.755 c-9.074,0-16.457-7.383-16.457-16.457c0-9.074,7.383-16.457,16.457-16.457c9.074,0,16.457,7.383,16.457,16.457 C187.61,333.372,180.228,340.755,171.153,340.755z M298.787,340.755c-9.074,0-16.457-7.383-16.457-16.457 c0-9.074,7.383-16.457,16.457-16.457c9.074,0,16.457,7.383,16.457,16.457C315.244,333.372,307.861,340.755,298.787,340.755z M195.646,285.898l-19.94-29.515l19.261-29.917h159.409v59.451C354.131,285.911,195.646,285.898,195.646,285.898z M353.644,340.755c-9.074,0-16.457-7.383-16.457-16.457c0-9.074,7.383-16.457,16.457-16.457c9.074,0,16.457,7.383,16.457,16.457 C370.101,333.372,362.718,340.755,353.644,340.755z M390.697,314.237c-2.309-8.495-7.465-15.827-14.379-20.904v-66.867h25.783 c0,0,0.063,25.925,0.183,27.114c1.816,17.82,16.908,31.77,35.199,31.77h10.333l1.446,28.888H390.697z M424.044,249.967v-23.501 h20.831l1.844,36.941h-9.236C430.072,263.407,424.044,257.378,424.044,249.967z M199.953,204.522v-32.798l239.53,10.22 c0.1,0.004,0.199,0.008,0.297,0.009c17.419,0.271,33.185,8.717,42.989,22.569H199.953z"/> </g> </g> </g>
</svg>