<svg width="25" height="24" viewBox="0 0 25 24" fill="none" xmlns="http://www.w3.org/2000/svg">
<path fill-rule="evenodd" clip-rule="evenodd" d="M3.5 5C3.5 3.89543 4.39543 3 5.5 3L13.5 3C14.6046 3 15.5 3.89543 15.5 5V12H16.5C17.6046 12 18.5 12.8954 18.5 14V16.5C18.5 16.7761 18.7239 17 19 17C19.2761 17 19.5 16.7761 19.5 16.5V10.4142L18.25 9.16421L18.2071 9.20711C17.8166 9.59763 17.1834 9.59763 16.7929 9.20711C16.4024 8.81658 16.4024 8.18342 16.7929 7.79289L16.8358 7.75L16.7929 7.70711C16.4024 7.31658 16.4024 6.68342 16.7929 6.29289C17.1834 5.90237 17.8166 5.90237 18.2071 6.29289L20.9142 9C21.2893 9.37507 21.5 9.88378 21.5 10.4142V16.5C21.5 17.8807 20.3807 19 19 19C17.6193 19 16.5 17.8807 16.5 16.5V14H15.5V19C16.0523 19 16.5 19.4477 16.5 20C16.5 20.5523 16.0523 21 15.5 21H3.5C2.94772 21 2.5 20.5523 2.5 20C2.5 19.4477 2.94772 19 3.5 19L3.5 5ZM10.3944 8.44721C10.6414 7.95324 10.4412 7.35256 9.94721 7.10557C9.45324 6.85858 8.85256 7.05881 8.60557 7.55279L6.61281 11.5383C6.27704 12.2098 6.76534 13 7.51618 13H9.88197L8.60557 15.5528C8.35858 16.0468 8.55881 16.6474 9.05279 16.8944C9.54676 17.1414 10.1474 16.9412 10.3944 16.4472L12.3872 12.4617C12.723 11.7901 12.2346 11 11.4838 11H9.11803L10.3944 8.44721Z" fill="#FF8343"/>
</svg>
