<svg width="24" height="24" viewBox="0 0 24 24" fill="none" xmlns="http://www.w3.org/2000/svg">
<path d="M11.9678 19.3178C13.3464 19.3178 14.4686 18.146 14.4686 16.7051C14.4686 15.5787 13.7805 14.619 12.8203 14.2541V13.1226H15.1191C15.5714 13.1226 15.939 12.7375 15.939 12.2652C15.939 11.7929 15.5714 11.409 15.1191 11.409H12.8203V9.98332H15.1191C15.5714 9.98332 15.939 9.59944 15.939 9.12716C15.939 8.65488 15.5714 8.26973 15.1191 8.26973H12.8203V6.8453H15.1191C15.5714 6.8453 15.939 6.46143 15.939 5.98788C15.939 5.5156 15.5714 5.13171 15.1191 5.13171H12.8203V2.89027C12.8203 2.39905 12.437 2 11.9678 2C11.4974 2 11.1153 2.39905 11.1153 2.89027V14.2541C10.1551 14.619 9.46704 15.5787 9.46704 16.7051C9.46704 18.146 10.5892 19.3178 11.9678 19.3178Z" fill=" #000000"/>
<path d="M21.4037 16.5536C21.1848 16.5536 21.0978 16.4766 20.8777 16.2568C20.6213 15.9992 20.2343 15.6116 19.5245 15.6116C18.8147 15.6116 18.4277 15.9992 18.1725 16.2568C17.9512 16.4766 17.8642 16.5536 17.6465 16.5536C17.4289 16.5536 17.3406 16.4766 17.1217 16.2568C16.8653 15.9992 16.4784 15.6116 15.7685 15.6116C15.4396 15.6116 15.1724 15.8906 15.1724 16.2354C15.1724 16.5789 15.4396 16.8592 15.7685 16.8592C15.9874 16.8592 16.0745 16.935 16.2934 17.1559C16.5497 17.4123 16.9367 17.8 17.6465 17.8C18.3564 17.8 18.7433 17.4123 18.9985 17.1559C19.2186 16.935 19.3068 16.8592 19.5245 16.8592C19.7434 16.8592 19.8304 16.935 20.0505 17.1559C20.3069 17.4123 20.6939 17.8 21.4037 17.8C21.7326 17.8 21.9999 17.5209 21.9999 17.1774C21.9999 16.8327 21.7326 16.5536 21.4037 16.5536Z" fill=" #000000"/>
<path d="M5.82611 17.1559C6.0462 16.935 6.13326 16.8592 6.35214 16.8592C6.5698 16.8592 6.65688 16.935 6.87817 17.1559C7.13332 17.4123 7.52029 17.8 8.23013 17.8C8.56025 17.8 8.8275 17.5209 8.8275 17.1774C8.8275 16.8327 8.56025 16.5536 8.23013 16.5536C8.01246 16.5536 7.92418 16.4766 7.70409 16.2568C7.44894 15.9992 7.06197 15.6116 6.35214 15.6116C5.6423 15.6116 5.25533 15.9992 4.99897 16.2568C4.77888 16.4766 4.69182 16.5536 4.47294 16.5536C4.25528 16.5536 4.16821 16.4766 3.94812 16.2568C3.69176 15.9992 3.306 15.6116 2.59617 15.6116C2.26725 15.6116 2 15.8906 2 16.2354C2 16.5789 2.26725 16.8592 2.59617 16.8592C2.81383 16.8592 2.9009 16.935 3.12099 17.1559C3.37735 17.4123 3.76432 17.8 4.47294 17.8C5.18278 17.8 5.56975 17.4123 5.82611 17.1559Z" fill=" #000000"/>
<path d="M19.0227 19.8697C18.3419 19.8697 17.9719 20.2397 17.7276 20.4859C17.5244 20.6892 17.4507 20.7536 17.2584 20.7536C17.0661 20.7536 16.9924 20.6892 16.7892 20.4859C16.5449 20.2397 16.1749 19.8697 15.4929 19.8697C14.8121 19.8697 14.442 20.2409 14.1978 20.4859C13.9946 20.6892 13.9208 20.7536 13.7298 20.7536C13.5375 20.7536 13.465 20.6892 13.2618 20.4859C13.0163 20.2397 12.6463 19.8697 11.9655 19.8697C11.2847 19.8697 10.9146 20.2409 10.6703 20.4859C10.4672 20.6892 10.3934 20.7536 10.2024 20.7536C10.0101 20.7536 9.93753 20.6892 9.73438 20.4859C9.49011 20.2409 9.12007 19.8697 8.43926 19.8697C7.75844 19.8697 7.38841 20.2409 7.14414 20.4859C6.94098 20.6892 6.86721 20.7536 6.67615 20.7536C6.48509 20.7536 6.41133 20.6892 6.20696 20.4859C5.96269 20.2409 5.59386 19.8697 4.91184 19.8697C4.58292 19.8697 4.31567 20.1488 4.31567 20.4935C4.31567 20.837 4.58292 21.1161 4.91184 21.1161C5.10411 21.1161 5.17667 21.1805 5.38103 21.385C5.6253 21.63 5.99413 22 6.67615 22C7.35696 22 7.72579 21.63 7.97127 21.385C8.17443 21.1805 8.24698 21.1161 8.43926 21.1161C8.63032 21.1161 8.70408 21.1805 8.90724 21.385C9.15151 21.63 9.52155 22 10.2024 22C10.8832 22 11.2532 21.63 11.4975 21.385C11.7006 21.1805 11.7732 21.1161 11.9655 21.1161C12.1577 21.1161 12.2315 21.1805 12.4335 21.385C12.6789 21.63 13.049 22 13.7298 22C14.4106 22 14.7806 21.63 15.0249 21.385C15.2281 21.1805 15.3018 21.1161 15.4929 21.1161C15.6852 21.1161 15.7589 21.1805 15.9633 21.385C16.2076 21.63 16.5776 22 17.2584 22C17.9392 22 18.3093 21.63 18.5535 21.385C18.7579 21.1805 18.8317 21.1161 19.0227 21.1161C19.3529 21.1161 19.6201 20.837 19.6201 20.4935C19.6201 20.1488 19.3529 19.8697 19.0227 19.8697Z" fill=" #000000"/>
</svg>
