<svg width="18" height="18" viewBox="0 0 18 18" fill="none" xmlns="http://www.w3.org/2000/svg">
<rect width="18" height="18" fill="ืนืำ"/>
<path d="M18 0H0V18H18V0Z" stroke="#FF8343" stroke-width="0.00018"/>
<path d="M0.75 9C0.757848 10.8571 1.39206 12.6573 2.55001 14.1092C3.70797 15.5611 5.32193 16.5798 7.13076 17.0006C8.9396 17.4214 10.8375 17.2195 12.5174 16.4277C14.1972 15.6359 15.5608 14.3005 16.3875 12.6375C16.4805 12.4801 16.5127 12.2941 16.4782 12.1145C16.4437 11.935 16.3447 11.7742 16.2 11.6625C16.1122 11.5957 16.0107 11.5492 15.9028 11.5262C15.7949 11.5031 15.6832 11.5042 15.5758 11.5293C15.4683 11.5543 15.3678 11.6028 15.2812 11.6712C15.1946 11.7396 15.1242 11.8263 15.075 11.925C14.532 13.0751 13.6717 14.0461 12.5955 14.7237C11.5192 15.4014 10.2718 15.7574 9 15.75C7.8738 15.751 6.76524 15.4703 5.7753 14.9333C4.78537 14.3963 3.94553 13.6201 3.33229 12.6755C2.71906 11.7309 2.35191 10.6479 2.2643 9.52508C2.1767 8.40229 2.37141 7.27542 2.83072 6.24714C3.29002 5.21885 3.99931 4.32182 4.89397 3.63778C5.78862 2.95373 6.84022 2.50441 7.95295 2.33074C9.06568 2.15707 10.2042 2.26458 11.2647 2.64347C12.3253 3.02235 13.2742 3.66058 14.025 4.5H12.0375C11.8522 4.49661 11.6717 4.55868 11.5276 4.67529C11.3836 4.79189 11.2853 4.95556 11.25 5.1375C11.2337 5.24499 11.2409 5.35474 11.2712 5.45916C11.3016 5.56357 11.3542 5.66014 11.4256 5.74218C11.4969 5.82422 11.5852 5.88978 11.6844 5.93429C11.7836 5.97881 11.8913 6.00123 12 6H15.75C15.9489 6 16.1397 5.92098 16.2803 5.78033C16.421 5.63968 16.5 5.44891 16.5 5.25V1.5375C16.5034 1.35221 16.4413 1.17166 16.3247 1.02761C16.2081 0.883572 16.0444 0.785268 15.8625 0.749999C15.755 0.733684 15.6453 0.740934 15.5408 0.771247C15.4364 0.80156 15.3399 0.854211 15.2578 0.925553C15.1758 0.996894 15.1102 1.08522 15.0657 1.18441C15.0212 1.2836 14.9988 1.39128 15 1.5V3.3375C13.8661 2.13601 12.3976 1.30261 10.7847 0.94523C9.17178 0.587845 7.4887 0.722935 5.95343 1.33301C4.41815 1.94308 3.10139 3.00003 2.17367 4.36699C1.24594 5.73395 0.749975 7.34795 0.75 9Z" fill="#FF8343" stroke="#FF8343" stroke-width="0.00018"/>
<path d="M12.75 12C12.6163 12.0028 12.4851 11.9634 12.375 11.8875L8.25 9.4125V5.25C8.25 5.05109 8.32902 4.86032 8.46967 4.71967C8.61032 4.57902 8.80109 4.5 9 4.5C9.19891 4.5 9.38968 4.57902 9.53033 4.71967C9.67098 4.86032 9.75 5.05109 9.75 5.25V8.5875L13.125 10.6125C13.2115 10.659 13.2875 10.7228 13.3482 10.8001C13.4089 10.8773 13.4529 10.9663 13.4776 11.0614C13.5022 11.1565 13.5069 11.2556 13.4914 11.3526C13.4759 11.4496 13.4405 11.5423 13.3875 11.625C13.3257 11.7399 13.2336 11.8356 13.1212 11.9017C13.0088 11.9678 12.8804 12.0018 12.75 12Z" fill="#FF8343" stroke="#FF8343" stroke-width="0.00018"/>
</svg>
