<svg width="24" height="24" viewBox="0 0 24 24" fill="none" xmlns="http://www.w3.org/2000/svg">
<path d="M9.88003 4.6C9.08003 1.14 3.87002 1.13 3.07002 4.6C2.60002 6.63 3.89003 8.35 5.01003 9.42C5.83003 10.19 7.12003 10.19 7.94003 9.42C9.06003 8.35 10.34 6.63 9.88003 4.6ZM6.51003 6.2C5.96003 6.2 5.51003 5.75 5.51003 5.2C5.51003 4.65 5.95003 4.2 6.50003 4.2H6.51003C7.07003 4.2 7.51003 4.65 7.51003 5.2C7.51003 5.75 7.07003 6.2 6.51003 6.2Z" fill="#FF8343"/>
<path d="M22.91 16.6C22.11 13.14 16.88 13.13 16.07 16.6C15.6 18.63 16.89 20.35 18.02 21.42C18.84 22.19 20.14 22.19 20.96 21.42C22.09 20.35 23.38 18.63 22.91 16.6ZM19.53 18.2C18.98 18.2 18.53 17.75 18.53 17.2C18.53 16.65 18.97 16.2 19.52 16.2H19.53C20.08 16.2 20.53 16.65 20.53 17.2C20.53 17.75 20.08 18.2 19.53 18.2Z" fill="#FF8343"/>
<path d="M12.9999 19.75H10.3199C9.15994 19.75 8.14994 19.05 7.74994 17.97C7.33994 16.89 7.63994 15.7 8.50994 14.93L16.4999 7.94C16.9799 7.52 16.9899 6.95 16.8499 6.56C16.6999 6.17 16.3199 5.75 15.6799 5.75H12.9999C12.5899 5.75 12.2499 5.41 12.2499 5C12.2499 4.59 12.5899 4.25 12.9999 4.25H15.6799C16.8399 4.25 17.8499 4.95 18.2499 6.03C18.6599 7.11 18.3599 8.3 17.4899 9.07L9.49994 16.06C9.01994 16.48 9.00994 17.05 9.14994 17.44C9.29994 17.83 9.67994 18.25 10.3199 18.25H12.9999C13.4099 18.25 13.7499 18.59 13.7499 19C13.7499 19.41 13.4099 19.75 12.9999 19.75Z" fill="#FF8343"/>
</svg>
