<svg width="17" height="16" viewBox="0 0 17 16" fill="none" xmlns="http://www.w3.org/2000/svg">
<path d="M3.12405 13.4776L3.56489 12.8708H3.56489L3.12405 13.4776ZM2.38661 12.7402L1.77985 13.181H1.77985L2.38661 12.7402ZM12.3759 13.4776L11.9351 12.8708L12.3759 13.4776ZM13.1134 12.7402L12.5066 12.2993V12.2993L13.1134 12.7402ZM2.38661 3.48827L1.77985 3.04743L1.77985 3.04743L2.38661 3.48827ZM3.12405 2.75083L3.56489 3.35759L3.12405 2.75083ZM6.42566 2.86897C6.83984 2.864 7.17158 2.52422 7.16661 2.11003C7.16165 1.69585 6.82186 1.36411 6.40768 1.36908L6.42566 2.86897ZM14.4951 9.45654C14.5001 9.04236 14.1684 8.70257 13.7542 8.6976C13.34 8.69264 13.0002 9.02438 12.9953 9.43856L14.4951 9.45654ZM8.28171 10.7839L8.19888 10.0384L8.28171 10.7839ZM5.53518 10.5855L5.00485 11.1159H5.00485L5.53518 10.5855ZM5.33686 7.83901L6.08228 7.92184L5.33686 7.83901ZM6.1016 6.24788L5.57127 5.71755L6.1016 6.24788ZM5.51196 6.94382L4.83598 6.61893L4.83598 6.61893L5.51196 6.94382ZM9.87284 10.0191L10.4032 10.5494V10.5494L9.87284 10.0191ZM9.1769 10.6088L9.50179 11.2847H9.50179L9.1769 10.6088ZM7.75 13.3642C6.48338 13.3642 5.59366 13.3632 4.90896 13.289C4.23829 13.2163 3.85384 13.0808 3.56489 12.8708L2.68321 14.0844C3.27048 14.511 3.94909 14.6938 4.74739 14.7803C5.53165 14.8652 6.5168 14.8642 7.75 14.8642V13.3642ZM1 8.11422C1 9.34742 0.998971 10.3326 1.08394 11.1168C1.17043 11.9151 1.35317 12.5937 1.77985 13.181L2.99337 12.2993C2.78344 12.0104 2.64788 11.6259 2.57521 10.9553C2.50103 10.2706 2.5 9.38083 2.5 8.11422H1ZM3.56489 12.8708C3.34558 12.7115 3.15271 12.5186 2.99337 12.2993L1.77985 13.181C2.03171 13.5277 2.33656 13.8325 2.68321 14.0844L3.56489 12.8708ZM7.75 14.8642C8.9832 14.8642 9.96835 14.8652 10.7526 14.7803C11.5509 14.6938 12.2295 14.511 12.8168 14.0844L11.9351 12.8708C11.6462 13.0808 11.2617 13.2163 10.591 13.289C9.90633 13.3632 9.01662 13.3642 7.75 13.3642V14.8642ZM12.5066 12.2993C12.3473 12.5186 12.1544 12.7115 11.9351 12.8708L12.8168 14.0844C13.1634 13.8325 13.4683 13.5277 13.7202 13.181L12.5066 12.2993ZM2.5 8.11422C2.5 6.8476 2.50103 5.95788 2.57521 5.27318C2.64788 4.60251 2.78344 4.21806 2.99337 3.92911L1.77985 3.04743C1.35317 3.6347 1.17043 4.31331 1.08394 5.11161C0.998971 5.89587 1 6.88101 1 8.11422H2.5ZM2.68321 2.14406C2.33656 2.39592 2.03171 2.70077 1.77985 3.04743L2.99337 3.92911C3.15271 3.70979 3.34558 3.51693 3.56489 3.35759L2.68321 2.14406ZM6.40768 1.36908C4.80238 1.38832 3.60974 1.4709 2.68321 2.14406L3.56489 3.35759C4.04707 3.00727 4.74607 2.8891 6.42566 2.86897L6.40768 1.36908ZM12.9953 9.43856C12.9751 11.1181 12.857 11.8172 12.5066 12.2993L13.7202 13.181C14.3933 12.2545 14.4759 11.0618 14.4951 9.45654L12.9953 9.43856ZM12.9237 5.90758L9.34251 9.48878L10.4032 10.5494L13.9844 6.96824L12.9237 5.90758ZM6.63193 6.77821L10.2131 3.19701L9.15247 2.13635L5.57127 5.71755L6.63193 6.77821ZM8.19888 10.0384C7.41113 10.126 6.90149 10.1807 6.52923 10.1687C6.17709 10.1573 6.09854 10.0882 6.06551 10.0552L5.00485 11.1159C5.42496 11.536 5.95521 11.651 6.48082 11.6679C6.98631 11.6843 7.62336 11.6116 8.36453 11.5293L8.19888 10.0384ZM4.59145 7.75619C4.5091 8.49736 4.43646 9.13441 4.45278 9.6399C4.46976 10.1655 4.58474 10.6958 5.00485 11.1159L6.06551 10.0552C6.03248 10.0222 5.96337 9.94362 5.952 9.59149C5.93998 9.21923 5.99475 8.70959 6.08228 7.92184L4.59145 7.75619ZM5.57127 5.71755C5.27991 6.00891 5.00245 6.27256 4.83598 6.61893L6.18793 7.26871C6.21819 7.20576 6.26825 7.14189 6.63193 6.77821L5.57127 5.71755ZM6.08228 7.92184C6.13907 7.41066 6.15768 7.33166 6.18793 7.26871L4.83598 6.61893C4.6695 6.9653 4.63696 7.34666 4.59145 7.75619L6.08228 7.92184ZM9.34251 9.48878C8.97883 9.85247 8.91495 9.90253 8.852 9.93279L9.50179 11.2847C9.84816 11.1183 10.1118 10.8408 10.4032 10.5494L9.34251 9.48878ZM8.36453 11.5293C8.77405 11.4838 9.15542 11.4512 9.50179 11.2847L8.852 9.93279C8.78906 9.96304 8.71007 9.98164 8.19888 10.0384L8.36453 11.5293ZM12.9237 3.19701C13.3831 3.65644 13.6732 3.9488 13.8578 4.19065C14.0291 4.41519 14.0374 4.50607 14.0374 4.55229H15.5374C15.5374 4.04623 15.3234 3.63875 15.0503 3.28078C14.7904 2.94011 14.4138 2.5658 13.9844 2.13635L12.9237 3.19701ZM13.9844 6.96824C14.4138 6.53879 14.7904 6.16448 15.0503 5.82381C15.3234 5.46584 15.5374 5.05835 15.5374 4.55229H14.0374C14.0374 4.59852 14.0291 4.6894 13.8578 4.91394C13.6732 5.15579 13.3831 5.44814 12.9237 5.90758L13.9844 6.96824ZM13.9844 2.13635C13.5549 1.70689 13.1806 1.33033 12.8399 1.07041C12.482 0.797287 12.0745 0.583344 11.5684 0.583344V2.08334C11.6146 2.08334 11.7055 2.09162 11.9301 2.26294C12.1719 2.44747 12.4643 2.73757 12.9237 3.19701L13.9844 2.13635ZM10.2131 3.19701C10.6726 2.73757 10.9649 2.44747 11.2068 2.26294C11.4313 2.09162 11.5222 2.08334 11.5684 2.08334V0.583344C11.0624 0.583344 10.6549 0.797287 10.2969 1.07041C9.95624 1.33033 9.58193 1.70689 9.15247 2.13635L10.2131 3.19701ZM13.9844 5.90758L10.2131 2.13635L9.15247 3.19701L12.9237 6.96824L13.9844 5.90758Z" fill="white"/>
</svg>
