<?xml version="1.0" standalone="no"?>
<!DOCTYPE svg PUBLIC "-//W3C//DTD SVG 20010904//EN"
 "http://www.w3.org/TR/2001/REC-SVG-20010904/DTD/svg10.dtd">
<svg version="1.0" xmlns="http://www.w3.org/2000/svg"
 width="197.000000pt" height="237.000000pt" viewBox="0 0 197.000000 237.000000"
 preserveAspectRatio="xMidYMid meet">

<g transform="translate(0.000000,237.000000) scale(0.100000,-0.100000)"
fill="#000000" stroke="none">
<path d="M461 2264 c-15 -19 -21 -41 -21 -75 l0 -49 -85 0 c-88 0 -110 -7
-163 -54 -13 -12 -32 -40 -43 -63 -18 -40 -19 -76 -19 -899 l0 -857 22 -36
c27 -45 56 -72 91 -88 21 -10 125 -13 408 -13 332 0 384 2 412 16 44 23 82 67
95 113 18 57 17 1711 0 1760 -7 20 -25 48 -41 63 -47 47 -79 58 -172 58 l-85
0 0 53 c0 31 -6 61 -16 75 -15 21 -21 22 -189 22 l-174 0 -20 -26z m589 -266
c19 -32 20 -53 20 -867 l0 -834 -26 -34 -25 -33 -365 0 c-397 0 -382 -2 -413
57 -8 16 -11 252 -11 853 l0 831 22 29 22 30 378 0 378 0 20 -32z"/>
<path d="M648 1603 l-328 -3 0 -125 0 -125 330 0 330 0 0 130 c0 72 -1 129 -2
128 -2 -2 -150 -4 -330 -5z"/>
<path d="M320 1135 l0 -125 330 0 330 0 0 125 0 125 -330 0 -330 0 0 -125z"/>
<path d="M320 790 l0 -130 330 0 330 0 0 130 0 130 -330 0 -330 0 0 -130z"/>
<path d="M320 445 l0 -135 330 0 330 0 0 135 0 135 -330 0 -330 0 0 -135z"/>
<path d="M1220 1889 l0 -56 178 -7 c238 -9 276 -14 319 -43 l36 -24 -7 51 c-8
63 -27 94 -67 110 -19 8 -110 15 -245 19 l-214 6 0 -56z"/>
<path d="M1220 1653 l0 -142 230 -3 c215 -3 231 -4 250 -23 17 -18 21 -42 31
-202 13 -201 9 -245 -24 -268 -27 -19 -113 -19 -147 0 -17 10 -53 14 -115 13
l-90 -2 85 -3 c47 -2 89 -8 94 -13 7 -7 -49 -10 -152 -10 l-162 0 0 -141 0
-142 173 7 c148 6 175 5 186 -8 10 -12 10 -20 0 -38 -7 -13 -17 -26 -23 -30
-6 -4 -84 -8 -173 -8 l-163 0 0 -40 0 -40 144 0 c180 0 178 1 141 -110 -15
-44 -32 -83 -38 -87 -7 -5 -64 -10 -127 -13 l-115 -5 -3 -49 -3 -49 241 6
c337 9 335 8 326 218 -3 68 -5 138 -5 154 1 17 2 111 4 210 l2 180 34 13 c19
8 46 23 61 34 l28 19 0 134 0 135 -27 17 c-15 10 -45 25 -67 33 -48 18 -50 24
-65 192 -5 65 -15 127 -21 138 -23 43 -71 53 -298 59 l-212 6 0 -142z m610
-438 c0 -146 -1 -153 -21 -158 -11 -3 -22 0 -24 6 -6 21 -15 304 -10 309 3 3
17 3 30 0 l25 -4 0 -153z m-75 -561 c-13 -20 -19 -23 -36 -14 -11 6 -23 18
-26 26 -9 24 18 133 41 162 l21 27 8 -89 c7 -73 5 -92 -8 -112z m-17 -170 c4
-96 -12 -116 -97 -122 -73 -5 -74 -4 -28 99 44 101 43 101 85 97 l37 -3 3 -71z
m-419 -177 c15 -19 4 -27 -41 -27 -36 0 -50 15 -31 33 11 12 60 7 72 -6z m134
6 c14 -14 -17 -33 -54 -33 -38 0 -55 12 -44 30 7 11 88 14 98 3z"/>
<path d="M1243 1033 c15 -2 39 -2 55 0 15 2 2 4 -28 4 -30 0 -43 -2 -27 -4z"/>
<path d="M1220 450 l0 -60 98 0 c53 0 103 4 110 8 7 5 21 32 32 60 l20 52
-130 0 -130 0 0 -60z"/>
<path d="M1755 245 c-16 -8 -50 -14 -75 -15 -63 -1 -74 -10 -68 -56 l5 -39
-198 1 c-110 1 -199 -3 -199 -7 0 -5 143 -8 318 -7 174 1 301 3 282 5 l-36 4
4 64 c2 36 3 65 1 64 -2 0 -17 -7 -34 -14z"/>
</g>
</svg>
