<svg width="14" height="4" viewBox="0 0 14 4" fill="none" xmlns="http://www.w3.org/2000/svg">
<path d="M6.91667 0.666656C7.65305 0.666656 8.25 1.26361 8.25 1.99999C8.25 2.73637 7.65305 3.33332 6.91667 3.33332C6.18029 3.33332 5.58333 2.73637 5.58333 1.99999C5.58333 1.26361 6.18029 0.666657 6.91667 0.666656Z" fill="white"/>
<path d="M1.58333 0.666656C2.31971 0.666656 2.91667 1.26361 2.91667 1.99999C2.91667 2.73637 2.31971 3.33332 1.58333 3.33332C0.846954 3.33332 0.25 2.73637 0.25 1.99999C0.25 1.26361 0.846954 0.666657 1.58333 0.666656Z" fill="white"/>
<path d="M12.25 0.666656C12.9864 0.666656 13.5833 1.26361 13.5833 1.99999C13.5833 2.73637 12.9864 3.33332 12.25 3.33332C11.5136 3.33332 10.9167 2.73637 10.9167 1.99999C10.9167 1.26361 11.5136 0.666657 12.25 0.666656Z" fill="white"/>
</svg>
