<svg width="24" height="24" viewBox="0 0 24 24" fill="none" xmlns="http://www.w3.org/2000/svg">
<path d="M7.58933 7.88787C7.8986 8.04279 8.20826 8.19689 8.51855 8.34977C8.7602 8.46884 9.00162 8.58839 9.24295 8.70811C9.40397 8.78797 9.56508 8.86764 9.7264 8.9469C9.88468 9.02469 10.0427 9.10297 10.2006 9.18159C10.26 9.21107 10.3195 9.24039 10.3791 9.26951C11.0619 9.60341 11.6129 10.0148 11.8762 10.7557C11.949 11.0019 11.9753 11.2265 11.9771 11.4828C11.9785 11.5156 11.9799 11.5484 11.9813 11.5821C11.9858 12.111 11.7315 12.6061 11.4879 13.062C11.4048 13.2178 11.3235 13.3745 11.242 13.5311C11.2146 13.5835 11.2146 13.5835 11.1867 13.6369C10.9395 14.1121 10.7013 14.5919 10.4622 15.0713C10.4102 15.1755 10.3582 15.2798 10.3061 15.384C10.1325 15.7318 9.95899 16.0796 9.78552 16.4275C9.61051 16.7784 9.43547 17.1294 9.26027 17.4802C9.17326 17.6545 9.08637 17.8288 8.99951 18.0031C8.77929 18.4445 8.55667 18.8843 8.32552 19.3201C8.21117 19.5358 8.10137 19.7531 7.99691 19.9738C7.96548 20.0388 7.93399 20.1038 7.90247 20.1688C7.85483 20.2671 7.80747 20.3656 7.76081 20.4645C7.71434 20.5626 7.66685 20.6603 7.61914 20.7578C7.60542 20.7875 7.5917 20.8172 7.57757 20.8478C7.50882 20.9862 7.46123 21.0565 7.32287 21.129C7.1869 21.1487 7.13568 21.1415 7.01496 21.0803C6.98004 21.0631 6.94513 21.0459 6.90915 21.0282C6.85234 20.9987 6.85234 20.9987 6.79437 20.9685C6.75383 20.9483 6.71328 20.928 6.67151 20.9072C6.58033 20.8615 6.48933 20.8155 6.39849 20.7692C6.23224 20.6845 6.06504 20.6017 5.89781 20.519C4.85551 20.0024 4.85551 20.0024 4.34795 19.7291C4.14818 19.6222 3.94562 19.5221 3.74145 19.424C3.65715 19.3831 3.57288 19.3422 3.48862 19.3012C3.43368 19.2747 3.37861 19.2485 3.32339 19.2226C2.71739 18.9383 2.32323 18.5577 2.0903 17.9231C2.02359 17.6859 2.00579 17.4589 2.00232 17.2141C2.00156 17.1812 2.00079 17.1483 2 17.1145C2.00547 16.5861 2.24663 16.1169 2.48263 15.6566C2.51101 15.6004 2.53935 15.5442 2.56765 15.488C2.64144 15.3417 2.7157 15.1956 2.7901 15.0495C2.90954 14.8149 3.02831 14.58 3.14697 14.345C3.18821 14.2635 3.2297 14.1821 3.27122 14.1008C3.29663 14.0506 3.32204 14.0005 3.34744 13.9504C3.36956 13.9069 3.39167 13.8635 3.41446 13.8188C3.55175 13.5238 3.61081 13.2578 3.50566 12.9447C3.39056 12.6751 3.24356 12.5436 2.99592 12.3962C2.73978 12.2408 2.6137 12.0723 2.51982 11.7907C2.411 11.2719 2.65593 10.8722 2.88815 10.426C3.00568 10.1997 3.11731 9.97077 3.22864 9.74139C3.28557 9.62483 3.3426 9.50833 3.39968 9.39185C3.43711 9.3153 3.47438 9.23868 3.51149 9.16197C3.90241 8.35609 4.29585 7.7336 5.16942 7.40229C6.04358 7.09988 6.82596 7.50546 7.58933 7.88787ZM6.12162 12.4117C5.84816 12.9234 5.58634 13.4397 5.33317 13.9618C5.04072 14.5647 4.74543 15.1661 4.44492 15.7651C4.43203 15.7908 4.41913 15.8165 4.40584 15.843C4.29109 16.0718 4.17628 16.3005 4.061 16.529C3.99009 16.6696 3.91937 16.8103 3.84867 16.951C3.82724 16.9933 3.80581 17.0356 3.78373 17.0791C3.76439 17.1177 3.74505 17.1562 3.72512 17.1959C3.70814 17.2296 3.69115 17.2633 3.67365 17.2979C3.63206 17.3774 3.63206 17.3774 3.63762 17.4625C5.12582 18.1915 5.12582 18.1915 6.61842 18.9115C6.72537 18.8154 6.78466 18.719 6.849 18.5909C6.87965 18.5303 6.87965 18.5303 6.91092 18.4684C6.93299 18.4242 6.95506 18.3799 6.9778 18.3343C7.01306 18.2643 7.01306 18.2643 7.04903 18.1929C7.11341 18.0651 7.17747 17.9371 7.24145 17.809C7.29487 17.7022 7.34844 17.5954 7.402 17.4886C7.52829 17.2369 7.65431 16.9849 7.78017 16.7329C7.91012 16.4727 8.04056 16.2128 8.17124 15.953C8.28338 15.73 8.3952 15.5068 8.50677 15.2835C8.57343 15.1501 8.64021 15.0168 8.7073 14.8836C8.78202 14.7353 8.85608 14.5866 8.93007 14.4379C8.95248 14.3936 8.97488 14.3493 8.99797 14.3037C9.01794 14.2633 9.03791 14.2229 9.05848 14.1813C9.07606 14.1462 9.09365 14.111 9.11176 14.0748C9.15618 13.9794 9.15618 13.9794 9.10242 13.8607C9.01614 13.8076 8.93261 13.7623 8.84193 13.718C8.81473 13.7043 8.78753 13.6907 8.75951 13.6766C8.66933 13.6313 8.57886 13.5867 8.48838 13.5421C8.4257 13.5108 8.36304 13.4796 8.30039 13.4483C8.16892 13.3826 8.03732 13.3173 7.90561 13.2522C7.73683 13.1687 7.5683 13.0848 7.39985 13.0006C7.27039 12.936 7.14084 12.8715 7.01127 12.8071C6.9491 12.7763 6.88696 12.7453 6.82483 12.7143C6.7379 12.6711 6.65087 12.628 6.56379 12.585C6.53813 12.5722 6.51247 12.5594 6.48602 12.5462C6.36618 12.4873 6.25324 12.4367 6.12162 12.4117Z" fill=" #000000"/>
<path d="M18.2218 5.70251C18.4302 5.7617 18.4912 5.85934 18.609 6.03355C18.6299 6.06301 18.6509 6.09246 18.6724 6.12281C18.717 6.18558 18.7612 6.2486 18.8051 6.31183C18.8722 6.40774 18.9408 6.50233 19.01 6.59666C19.273 6.95513 19.5269 7.31854 19.77 7.69079C19.8301 7.78262 19.8908 7.87411 19.9514 7.96561C20.2854 8.4718 20.5992 8.98804 20.9015 9.51374C20.9321 9.56658 20.9321 9.56658 20.9633 9.62049C21.6342 10.7843 22.2509 12.1055 21.8966 13.475C21.5579 14.56 20.975 15.4814 19.9485 16.0302C19.0234 16.4989 17.9924 16.5941 17.0032 16.2715C16.5045 16.095 16.0755 15.8327 15.6851 15.4753C15.6519 15.445 15.6187 15.4147 15.5845 15.3835C14.829 14.661 14.427 13.6477 14.3879 12.6127C14.3428 10.2209 16.6014 7.5396 18.0035 5.78774C18.0863 5.70494 18.0863 5.70494 18.2218 5.70251ZM19.067 10.779C18.9694 10.92 18.9747 11.0009 18.9971 11.1697C19.0815 11.2598 19.1528 11.3234 19.2507 11.3949C19.3005 11.4341 19.3501 11.4736 19.3995 11.5134C19.4232 11.5324 19.4469 11.5515 19.4713 11.5711C19.7049 11.7683 19.8554 12.0279 19.9079 12.3289C19.927 12.6953 19.7735 12.9446 19.5767 13.2397C19.5526 13.3622 19.5526 13.3622 19.5767 13.4881C19.6829 13.6099 19.7438 13.6503 19.9053 13.6641C20.204 13.5422 20.3238 13.2089 20.4469 12.9299C20.5877 12.5687 20.56 12.2144 20.4155 11.8582C20.332 11.684 20.232 11.5301 20.1149 11.3767C20.0937 11.3487 20.0724 11.3206 20.0505 11.2917C19.8593 11.0566 19.5709 10.738 19.2583 10.7012C19.1569 10.708 19.1569 10.708 19.067 10.779Z" fill=" #000000"/>
<path d="M16.4331 3.04075C16.627 3.13896 16.7192 3.27709 16.8028 3.46931C16.8212 3.51067 16.8397 3.55203 16.8587 3.59464C17.0934 4.15639 17.0934 4.15639 16.9794 4.46145C16.8346 4.74198 16.6133 4.85756 16.3275 4.95987C16.2812 4.977 16.2812 4.977 16.2339 4.99448C16.1667 5.01933 16.0993 5.044 16.0319 5.06852C15.8861 5.12157 15.7405 5.17547 15.595 5.22932C15.5165 5.25835 15.438 5.28734 15.3595 5.31628C14.8594 5.50086 14.3615 5.69107 13.8634 5.88086C13.7297 5.93173 13.5961 5.98258 13.4624 6.03343C13.3823 6.06393 13.3021 6.09444 13.222 6.12497C13.1859 6.13873 13.1497 6.15248 13.1125 6.16665C13.0782 6.18031 13.0439 6.19397 13.0085 6.20804C12.9112 6.24311 12.9112 6.24311 12.8223 6.26001C12.6618 6.29545 12.5965 6.34345 12.5014 6.48034C12.4156 6.63702 12.3381 6.79594 12.2622 6.95758C12.2334 7.01676 12.2044 7.07589 12.1754 7.13496C12.0994 7.29009 12.0247 7.44579 11.9503 7.60168C11.8308 7.8516 11.7096 8.10068 11.5881 8.34963C11.5459 8.4367 11.5043 8.52404 11.4627 8.61143C11.437 8.66461 11.4113 8.71779 11.3856 8.77095C11.3634 8.81756 11.3411 8.86416 11.3182 8.91218C11.2552 9.01691 11.2552 9.01691 11.131 9.05831C11.0566 9.03426 11.0566 9.03426 10.9731 8.99277C10.9417 8.97742 10.9104 8.96207 10.8781 8.94625C10.8444 8.92922 10.8108 8.91219 10.7761 8.89465C10.7415 8.87742 10.7069 8.8602 10.6712 8.84246C10.5979 8.8059 10.5248 8.76914 10.4517 8.73218C10.3396 8.67558 10.2271 8.61988 10.1146 8.56426C10.0435 8.52868 9.97254 8.49305 9.90157 8.45736C9.86776 8.44067 9.83395 8.42397 9.79912 8.40677C9.76803 8.3909 9.73694 8.37502 9.7049 8.35867C9.67742 8.34485 9.64994 8.33103 9.62162 8.31678C9.55776 8.27171 9.55776 8.27171 9.51636 8.14751C9.55214 8.05104 9.55214 8.05104 9.61033 7.93607C9.63191 7.89292 9.65349 7.84978 9.67572 7.80533C9.69961 7.75862 9.72349 7.71192 9.7481 7.66381C9.77238 7.61554 9.79666 7.56727 9.82168 7.51754C9.88649 7.38871 9.95179 7.26013 10.0172 7.1316C10.0827 7.00261 10.1478 6.87339 10.213 6.74419C10.3312 6.50972 10.4498 6.27545 10.5689 6.04138C10.6134 5.95319 10.6573 5.86471 10.7007 5.77599C10.722 5.73241 10.7434 5.68883 10.7654 5.64393C10.7842 5.60518 10.803 5.56644 10.8223 5.52652C11.2758 4.68797 12.1618 4.42457 12.9991 4.11618C13.1313 4.06715 13.2635 4.01801 13.3956 3.96885C13.4857 3.93534 13.5758 3.90186 13.6659 3.86841C14.1304 3.69585 14.5934 3.51948 15.0562 3.34252C15.1663 3.30044 15.2763 3.25836 15.3864 3.21631C15.4512 3.19156 15.516 3.16677 15.5807 3.14196C15.8656 3.03305 16.1297 2.94572 16.4331 3.04075Z" fill=" #000000"/>
<path d="M3.0996 19.7809C3.25126 19.8058 3.37413 19.8479 3.51186 19.9156C3.5515 19.9349 3.59114 19.9543 3.63197 19.9742C3.67424 19.9952 3.71651 20.0162 3.76006 20.0379C3.80378 20.0595 3.8475 20.0811 3.89254 20.1033C3.98475 20.149 4.07689 20.1949 4.16897 20.2408C4.31032 20.3112 4.45208 20.3807 4.59388 20.4502C4.6834 20.4947 4.77288 20.5392 4.86234 20.5838C4.90494 20.6046 4.94755 20.6253 4.99144 20.6467C5.03056 20.6664 5.06967 20.6862 5.10997 20.7065C5.14456 20.7237 5.17914 20.7408 5.21478 20.7585C5.2938 20.8159 5.2938 20.8159 5.32847 20.8992C5.3384 21.0206 5.2923 21.0885 5.23348 21.194C5.21131 21.2342 5.18913 21.2744 5.16629 21.3158C5.14262 21.3574 5.11895 21.3991 5.09457 21.4421C5.07138 21.4841 5.04819 21.5261 5.0243 21.5693C4.85179 21.8789 4.85179 21.8789 4.7556 21.9751C4.52051 22.0089 4.36067 21.9171 4.15951 21.8103C4.12664 21.7933 4.09378 21.7764 4.05992 21.7589C3.99056 21.7229 3.92132 21.6868 3.8522 21.6504C3.74735 21.5952 3.64217 21.5407 3.53689 21.4863C3.46927 21.4512 3.40167 21.416 3.3341 21.3808C3.30308 21.3646 3.27206 21.3485 3.2401 21.3319C2.6708 21.0317 2.6708 21.0317 2.59326 20.8853C2.60751 20.7198 2.67701 20.5956 2.75547 20.451C2.77006 20.4232 2.78466 20.3953 2.7997 20.3665C2.82913 20.3103 2.85877 20.2542 2.88862 20.1982C2.96132 20.0603 3.03032 19.9206 3.0996 19.7809Z" fill=" #000000"/>
<path d="M7.27814 14.5308C7.32521 14.5356 7.37228 14.5404 7.42077 14.5454C7.65089 14.5747 7.87998 14.6087 8.10872 14.6473C8.03474 14.883 7.93165 15.0901 7.81892 15.3097C7.65498 15.296 7.49104 15.2823 7.32212 15.2683C7.23586 15.4037 7.14961 15.5391 7.06337 15.6745C7.03725 15.7155 7.01113 15.7565 6.98421 15.7988C6.79353 16.0984 6.60361 16.3985 6.41484 16.6994C6.31523 16.8576 6.21458 17.0152 6.11247 17.1718C6.09243 17.2027 6.07239 17.2336 6.05174 17.2654C5.99732 17.3383 5.99732 17.3383 5.91452 17.3797C5.73589 17.3999 5.65193 17.3978 5.50052 17.2969C5.40734 17.1571 5.40917 17.0933 5.43477 16.9308C5.47775 16.7731 5.56539 16.6507 5.65836 16.518C5.70009 16.4561 5.74176 16.3942 5.78337 16.3322C5.81584 16.2844 5.81584 16.2844 5.84897 16.2356C5.95713 16.074 6.0598 15.9091 6.16292 15.7444C6.2043 15.6788 6.2457 15.6132 6.28712 15.5477C6.34983 15.4485 6.41247 15.3492 6.47488 15.2498C6.5362 15.1523 6.59792 15.055 6.65972 14.9578C6.67814 14.9283 6.69655 14.8988 6.71552 14.8684C6.87268 14.6226 6.96771 14.4982 7.27814 14.5308Z" fill=" #000000"/>
</svg>
