<?xml version="1.0" encoding="iso-8859-1"?>
<!-- Uploaded to: SVG Repo, www.svgrepo.com, Generator: SVG Repo Mixer Tools -->
<!DOCTYPE svg PUBLIC "-//W3C//DTD SVG 1.1//EN" "http://www.w3.org/Graphics/SVG/1.1/DTD/svg11.dtd">
<svg fill="#000000" version="1.1" id="Capa_1" xmlns="http://www.w3.org/2000/svg" xmlns:xlink="http://www.w3.org/1999/xlink" 
	 width="32px" height="32px" viewBox="0 0 45.98 45.98" xml:space="preserve"
	>
<g>
	<g>
		<path d="M33.277,24.484c-0.426-0.967-0.426-2.074-0.001-3.039l5.176-11.712c0.951-2.161,0.753-4.615-0.536-6.589
			C36.626,1.165,34.448,0,32.086,0H13.893c-2.361,0-4.54,1.165-5.827,3.14c-1.29,1.978-1.49,4.44-0.536,6.602l5.172,11.707
			c0.427,0.967,0.427,2.072,0.001,3.038l-5.174,11.71c-0.953,2.158-0.752,4.638,0.535,6.615c1.289,1.979,3.468,3.168,5.829,3.168
			h18.192c2.36,0,4.54-1.189,5.829-3.168c1.288-1.978,1.487-4.453,0.534-6.612L33.277,24.484z M26.764,27.355l4.718,10.676
			c0.078,0.176,0.062,0.38-0.044,0.542c-0.104,0.161-0.285,0.259-0.478,0.259H15.018c-0.192,0-0.372-0.098-0.478-0.259
			c-0.105-0.162-0.121-0.366-0.044-0.542l4.72-10.678c1.231-2.793,1.231-5.998-0.001-8.792L14.497,7.88
			c-0.078-0.177-0.062-0.38,0.044-0.542c0.106-0.162,0.285-0.259,0.478-0.259h15.942c0.191,0,0.372,0.097,0.478,0.259
			c0.106,0.162,0.122,0.365,0.044,0.542l-4.719,10.684C25.532,21.356,25.532,24.561,26.764,27.355z"/>
		<path d="M20.909,32.669c1.148-1.149,3.012-1.149,4.16,0l4.104,4.104c0.069,0.068,0.09,0.173,0.053,0.264
			c-0.037,0.09-0.126,0.148-0.224,0.148H16.976c-0.098,0-0.187-0.059-0.224-0.148c-0.038-0.091-0.017-0.195,0.053-0.264
			L20.909,32.669z"/>
		<path d="M19.827,12.13c-0.264-0.001-0.509,0.132-0.652,0.353c-0.143,0.221-0.165,0.5-0.058,0.739l3.251,7.246
			c0.124,0.276,0.398,0.456,0.701,0.458c0.304,0.002,0.58-0.173,0.708-0.448l3.356-7.224c0.111-0.24,0.093-0.521-0.049-0.742
			c-0.143-0.223-0.389-0.358-0.651-0.359L19.827,12.13z"/>
	</g>
</g>
</svg>