<svg width="28" height="28" viewBox="0 0 13 17" fill="none" xmlns="http://www.w3.org/2000/svg">
<g clip-path="url(#clip0_684_1117)">
<path d="M6.5 3.5V4.75M6.5 3.5C3.73858 3.5 1.5 5.73858 1.5 8.5M6.5 3.5C9.26142 3.5 11.5 5.73858 11.5 8.5M6.5 12.25V13.5M6.5 13.5C9.26142 13.5 11.5 11.2614 11.5 8.5M6.5 13.5C3.73858 13.5 1.5 11.2614 1.5 8.5M2.75 8.5H1.5M11.5 8.5H10.25M10.0392 12.0392L9.15234 11.1523M2.96082 12.0392L3.84858 11.1515M2.96082 5L3.82904 5.86823M10.0392 5L7.24995 7.75M7.5 8.5C7.5 9.05228 7.05228 9.5 6.5 9.5C5.94772 9.5 5.5 9.05228 5.5 8.5C5.5 7.94772 5.94772 7.5 6.5 7.5C7.05228 7.5 7.5 7.94772 7.5 8.5Z" stroke="#FF8343" stroke-width="1.44" stroke-linecap="round" stroke-linejoin="round"/>
</g>
<defs>
<clipPath id="clip0_684_1117">
<rect width="12" height="12" fill="white" transform="translate(0.5 2.5)"/>
</clipPath>
</defs>
</svg>
