<svg width="24" height="24" viewBox="0 0 24 24" fill="none" xmlns="http://www.w3.org/2000/svg">
<path d="M16.4097 11.2218C16.5596 11.3046 16.6569 11.4142 16.7215 11.5726C16.7812 11.9266 16.6558 12.1947 16.4999 12.5054C16.4767 12.5531 16.4535 12.601 16.4305 12.6488C16.3828 12.7479 16.3346 12.8468 16.2862 12.9456C16.1752 13.173 16.07 13.4032 15.964 13.633C15.9216 13.7245 15.8791 13.816 15.8366 13.9075C15.8155 13.953 15.7943 13.9986 15.7725 14.0456C15.6543 14.2996 15.5356 14.5534 15.417 14.8072C15.2694 15.1231 15.1225 15.4392 14.976 15.7556C14.9598 15.7905 14.9436 15.8254 14.927 15.8614C14.8475 16.033 14.7681 16.2047 14.6887 16.3764C14.6151 16.5356 14.5412 16.6948 14.4672 16.8538C14.4365 16.9197 14.406 16.9856 14.3755 17.0515C14.3292 17.1519 14.2825 17.252 14.2357 17.3522C14.2219 17.3823 14.208 17.4124 14.1938 17.4435C13.9265 18.0131 13.4891 18.4947 12.8875 18.7126C12.7632 18.7513 12.6388 18.7874 12.5129 18.8207C12.4887 18.8282 12.4644 18.8358 12.4394 18.8436C11.8024 18.9673 11.1451 18.7956 10.6155 18.4381C10.1434 18.0813 9.76569 17.5429 9.66824 16.9502C9.60144 16.1908 9.72391 15.5526 10.1992 14.9384C10.5247 14.5857 10.9519 14.3407 11.3597 14.0967C11.529 13.9952 11.695 13.8894 11.8602 13.7816C12.1093 13.6193 12.3594 13.4587 12.6103 13.2993C12.9225 13.101 13.2342 12.9021 13.5456 12.7026C13.8877 12.4835 14.2301 12.2647 14.5731 12.0469C14.7573 11.93 14.9411 11.8125 15.1244 11.6942C15.163 11.6693 15.2016 11.6445 15.2414 11.6189C15.3151 11.5715 15.3887 11.524 15.4621 11.4763C15.7765 11.2745 16.028 11.1181 16.4097 11.2218Z" fill=" #000000"/>
<path d="M4.56341 9.31238C4.68344 9.36597 4.76639 9.42739 4.8596 9.51969C4.88676 9.5464 4.91392 9.57311 4.9419 9.60063C4.97128 9.62992 5.00066 9.65922 5.03093 9.6894C5.06218 9.72026 5.09343 9.75113 5.12563 9.78293C5.22893 9.88509 5.33192 9.98755 5.43487 10.0901C5.50638 10.1611 5.57789 10.2322 5.64941 10.3033C5.78008 10.4332 5.91064 10.5633 6.04108 10.6935C6.23312 10.8852 6.42566 11.0763 6.61865 11.2671C6.78581 11.4324 6.95233 11.5983 7.11863 11.7644C7.18949 11.8351 7.26054 11.9055 7.33179 11.9757C7.43117 12.0738 7.52979 12.1725 7.62825 12.2715C7.65803 12.3006 7.6878 12.3296 7.71848 12.3596C7.74509 12.3866 7.77169 12.4136 7.79911 12.4415C7.8342 12.4764 7.8342 12.4764 7.87001 12.5121C7.91468 12.5857 7.91468 12.5857 7.90562 12.687C7.87168 12.7932 7.8266 12.8603 7.75881 12.9486C7.18349 13.7479 6.87628 14.632 6.8166 15.6132C6.77906 16.1598 6.77906 16.1598 6.6126 16.351C6.46806 16.4764 6.34623 16.5262 6.15804 16.527C6.12576 16.5272 6.09347 16.5274 6.06021 16.5277C6.02493 16.5277 5.98964 16.5277 5.95328 16.5278C5.91601 16.528 5.87874 16.5282 5.84035 16.5284C5.71686 16.5289 5.59337 16.5292 5.46988 16.5294C5.38411 16.5296 5.29835 16.5299 5.21258 16.5301C5.03264 16.5305 4.8527 16.5307 4.67275 16.5309C4.44226 16.5311 4.21177 16.532 3.98128 16.5331C3.80407 16.5339 3.62685 16.5341 3.44964 16.5341C3.36467 16.5342 3.2797 16.5345 3.19473 16.5351C3.0758 16.5357 2.95689 16.5356 2.83795 16.5354C2.8029 16.5358 2.76785 16.5361 2.73174 16.5365C2.5336 16.5352 2.39668 16.5152 2.22532 16.4046C1.90784 16.0528 2.01334 15.5278 2.03048 15.0797C2.1529 13.355 2.82304 11.6463 3.82302 10.2476C3.84689 10.2141 3.84689 10.2141 3.87125 10.18C4.08767 9.87898 4.32357 9.59478 4.56341 9.31238Z" fill=" #000000"/>
<path d="M19.3714 9.31238C19.4827 9.36569 19.5552 9.40998 19.6341 9.50554C19.6537 9.5292 19.6732 9.55285 19.6934 9.57722C19.7141 9.60315 19.7348 9.62907 19.7562 9.65579C19.7892 9.69678 19.7892 9.69678 19.8228 9.73861C20.2636 10.2971 20.6437 10.9013 20.9691 11.5336C20.99 11.5742 20.99 11.5742 21.0113 11.6157C21.234 12.0545 21.4025 12.5075 21.5536 12.9754C21.5676 13.0182 21.5676 13.0182 21.5818 13.0619C21.7248 13.5064 21.8255 13.9571 21.9043 14.4172C21.909 14.4443 21.9137 14.4714 21.9185 14.4993C21.9803 14.8753 21.9919 15.252 21.9969 15.6325C21.9979 15.6782 21.9989 15.7238 22 15.7708C22.0005 16.0196 21.997 16.1782 21.8264 16.3656C21.6905 16.4851 21.5743 16.5262 21.3947 16.527C21.3624 16.5272 21.3301 16.5274 21.2968 16.5277C21.2616 16.5277 21.2263 16.5277 21.1899 16.5278C21.1526 16.528 21.1154 16.5282 21.077 16.5284C20.9535 16.5289 20.83 16.5292 20.7065 16.5294C20.6207 16.5296 20.535 16.5299 20.4492 16.5301C20.2693 16.5305 20.0893 16.5307 19.9094 16.5309C19.6789 16.5311 19.4484 16.532 19.2179 16.5331C19.0407 16.5339 18.8635 16.5341 18.6863 16.5341C18.6013 16.5342 18.5163 16.5345 18.4314 16.5351C18.3124 16.5357 18.1935 16.5356 18.0746 16.5354C18.0395 16.5358 18.0045 16.5361 17.9684 16.5365C17.7239 16.5349 17.5534 16.4961 17.3743 16.3169C17.2169 16.0696 17.2139 15.8029 17.1965 15.5181C17.1725 15.1803 17.1202 14.8683 17.0173 14.5455C16.8948 14.1459 17.0326 13.8793 17.2135 13.521C17.2562 13.4342 17.2988 13.3475 17.3414 13.2607C17.3621 13.2186 17.3828 13.1766 17.4041 13.1333C17.4803 12.9765 17.5528 12.8184 17.6227 12.6588C17.6429 12.6129 17.6631 12.567 17.6839 12.5196C17.8501 12.0986 17.8861 11.6548 17.7175 11.2276C17.6892 11.1186 17.7027 11.0571 17.7347 10.949C17.8015 10.8635 17.8015 10.8635 17.8894 10.7767C17.9222 10.7439 17.9549 10.7112 17.9887 10.6774C18.0243 10.6426 18.0599 10.6078 18.0965 10.572C18.1328 10.5359 18.1691 10.4999 18.2065 10.4627C18.3027 10.3671 18.3993 10.272 18.4961 10.177C18.5948 10.0798 18.6932 9.98221 18.7915 9.88465C18.9844 9.69345 19.1777 9.50276 19.3714 9.31238Z" fill=" #000000"/>
<path d="M11.4217 6.00012C11.4217 7.56898 11.4217 9.13785 11.4217 10.7543C11.1645 10.8057 10.9073 10.8571 10.6423 10.9101C10.0443 11.0981 9.4999 11.3392 8.98814 11.7026C8.88874 11.7674 8.88874 11.7674 8.69389 11.8454C7.60083 10.7523 6.50777 9.65924 5.38159 8.53306C6.60014 7.00988 9.0482 6.24952 10.9037 6.0264C11.0791 6.00764 11.2441 6.00012 11.4217 6.00012Z" fill=" #000000"/>
<path d="M12.5908 6.00012C14.6158 6.12668 16.5819 6.80811 18.1633 8.10441C18.2016 8.1342 18.2398 8.16398 18.2793 8.19467C18.319 8.22597 18.3586 8.25726 18.3995 8.28951C18.4545 8.33261 18.4545 8.33261 18.5105 8.37658C18.5374 8.4025 18.5642 8.42842 18.5919 8.45512C18.5919 8.60647 18.5497 8.63225 18.448 8.74159C18.4165 8.77563 18.3849 8.80967 18.3524 8.84475C18.2059 8.99909 18.0587 9.15274 17.9103 9.30532C17.8321 9.38587 17.7552 9.46737 17.6792 9.54994C17.0644 10.2166 17.0644 10.2166 16.8203 10.2678C16.6204 10.2612 16.4676 10.1822 16.2928 10.0918C15.6684 9.99034 15.0895 10.3949 14.606 10.7399C14.5625 10.7715 14.5625 10.7715 14.5181 10.8037C14.1022 11.1012 14.1022 11.1012 13.9165 11.1112C13.8051 11.0808 13.7086 11.037 13.604 10.9881C13.5067 10.9595 13.4099 10.9328 13.3117 10.9077C13.2663 10.8952 13.2209 10.8827 13.1741 10.8698C12.9815 10.823 12.7858 10.7897 12.5908 10.7543C12.5908 9.18539 12.5908 7.61653 12.5908 6.00012Z" fill=" #000000"/>
</svg>
