<svg width="17" height="16" viewBox="0 0 17 16" fill="none" xmlns="http://www.w3.org/2000/svg">
<g clip-path="url(#clip0_684_1166)">
<path d="M8.41659 3.33334H8.70618C10.7377 3.33334 11.7534 3.33334 12.139 3.6982C12.4723 4.01359 12.62 4.4782 12.53 4.92815C12.4259 5.44869 11.5967 6.03525 9.93811 7.20836L7.2284 9.12499C5.56985 10.2981 4.74058 10.8847 4.63648 11.4052C4.54649 11.8552 4.6942 12.3198 5.02749 12.6352C5.41308 13 6.42882 13 8.46032 13H9.08325M6.08325 3.33334C6.08325 4.43791 5.18782 5.33334 4.08325 5.33334C2.97868 5.33334 2.08325 4.43791 2.08325 3.33334C2.08325 2.22877 2.97868 1.33334 4.08325 1.33334C5.18782 1.33334 6.08325 2.22877 6.08325 3.33334ZM15.4166 12.6667C15.4166 13.7712 14.5212 14.6667 13.4166 14.6667C12.312 14.6667 11.4166 13.7712 11.4166 12.6667C11.4166 11.5621 12.312 10.6667 13.4166 10.6667C14.5212 10.6667 15.4166 11.5621 15.4166 12.6667Z" stroke="white" stroke-width="1.5" stroke-linecap="round" stroke-linejoin="round"/>
</g>
<defs>
<clipPath id="clip0_684_1166">
<rect width="16" height="16" fill="white" transform="translate(0.75)"/>
</clipPath>
</defs>
</svg>
